<?xml version="1.0" encoding="UTF-8" standalone="no"?>
<svg
   xmlns:dc="http://purl.org/dc/elements/1.1/"
   xmlns:cc="http://creativecommons.org/ns#"
   xmlns:rdf="http://www.w3.org/1999/02/22-rdf-syntax-ns#"
   xmlns:svg="http://www.w3.org/2000/svg"
   xmlns="http://www.w3.org/2000/svg"
   xmlns:sodipodi="http://sodipodi.sourceforge.net/DTD/sodipodi-0.dtd"
   xmlns:inkscape="http://www.inkscape.org/namespaces/inkscape"
   sodipodi:docname="autogyro-48.svg"
   inkscape:version="1.0 (4035a4fb49, 2020-05-01)"
   id="svg8"
   version="1.1"
   viewBox="0 0 12.7 12.7"
   height="48"
   width="48">
  <defs
     id="defs2" />
  <sodipodi:namedview
     inkscape:showpageshadow="true"
     inkscape:pagecheckerboard="true"
     units="px"
     inkscape:window-maximized="1"
     inkscape:window-y="1072"
     inkscape:window-x="-8"
     inkscape:window-height="1017"
     inkscape:window-width="1920"
     showgrid="false"
     inkscape:document-rotation="0"
     inkscape:current-layer="layer1"
     inkscape:document-units="px"
     inkscape:cy="28.042807"
     inkscape:cx="13.135078"
     inkscape:zoom="11.2"
     inkscape:pageshadow="2"
     inkscape:pageopacity="0.0"
     borderopacity="1.0"
     bordercolor="#666666"
     pagecolor="#ffffff"
     id="base" />
  <metadata
     id="metadata5">
    <rdf:RDF>
      <cc:Work
         rdf:about="">
        <dc:format>image/svg+xml</dc:format>
        <dc:type
           rdf:resource="http://purl.org/dc/dcmitype/StillImage" />
        <dc:title></dc:title>
      </cc:Work>
    </rdf:RDF>
  </metadata>
  <g
     id="layer1"
     inkscape:groupmode="layer"
     inkscape:label="Layer 1">
    <ellipse
       style="mix-blend-mode:normal;fill:none;fill-opacity:1;stroke:#000000;stroke-width:0.264583;stroke-miterlimit:4;stroke-dasharray:none;stroke-opacity:1"
       ry="0.74414062"
       rx="5.7168894"
       cy="2.4450336"
       cx="6.4255953"
       id="path10" />
    <ellipse
       style="fill:none;stroke:#000000;stroke-width:0.264583;stroke-miterlimit:4;stroke-dasharray:none;stroke-opacity:1"
       ry="2.5749629"
       rx="0.76776409"
       cy="7.8193827"
       cx="11.445591"
       id="path12" />
    <path
       d="M 10.374791,6.2988267 C 10.177466,6.2985825 9.9815924,6.3269575 9.7860007,6.3498855 9.3868866,6.3938262 8.9872014,6.4324799 8.5875864,6.4715671 8.2442562,6.5041825 7.9025024,6.5497533 7.5588065,6.5785498 7.1796406,6.6028676 6.7998598,6.6178835 6.4200502,6.627648 6.1343735,6.633098 5.8486277,6.634838 5.5629039,6.635698 5.2880643,6.6366241 5.0132241,6.6355478 4.7383842,6.6354335 c -0.3974833,0.0014 -0.7949448,0.00515 -1.1924363,0.00548 -0.3350191,-3.44e-4 -0.6703112,-0.00641 -1.0050896,0.00929 -0.1307655,0.00957 -0.2619384,0.014499 -0.3921956,0.029888 0,0 -0.277583,0.2072212 -0.277583,0.2072212 v 0 c 0.1324096,-0.018833 0.2659649,-0.026067 0.3991353,-0.038009 0.3403997,-0.024426 0.681935,-0.024831 1.0230455,-0.024802 0.3923064,3.704e-4 0.7845808,0.00408 1.176878,0.0058 0.2751061,1.21e-4 0.5502114,-4.497e-4 0.8253174,-1.963e-4 0.2880082,-5.027e-4 0.5760046,-0.00209 0.8638826,-0.011949 C 6.5394685,6.8070914 6.9195507,6.7926484 7.2992,6.7703994 7.6429832,6.7432814 7.9848918,6.7004384 8.3277785,6.6642591 8.726657,6.6245171 9.1249467,6.5786481 9.5243762,6.54441 9.7124516,6.524807 9.9013323,6.498141 10.090856,6.505113 c 0,0 0.283935,-0.20629 0.283935,-0.20629 z"
       id="path2809"
       style="fill:none;fill-opacity:1;stroke:#000000;stroke-width:0.15875;stroke-miterlimit:4;stroke-dasharray:none;stroke-opacity:1" />
    <path
       d="M 10.158293,9.4085693 C 9.8277734,9.3332366 9.498845,9.2505631 9.1678661,9.1772785 8.9478624,9.1285658 8.4183973,9.0202094 8.200774,8.9753218 7.4519662,8.8129793 6.6950343,8.6933709 5.9417224,8.554983 5.5442534,8.4799205 5.1494409,8.3922169 4.7520933,8.3165278 4.3925725,8.2563047 4.0330222,8.1962136 3.673512,8.1358227 3.4521441,8.0988424 3.2309875,8.0607654 3.0107311,8.0176209 2.8688089,7.9910033 2.7320639,7.943927 2.5904209,7.9167115 2.4616717,7.8920361 2.3333011,7.86574 2.203259,7.8488313 2.1287855,7.840997 2.0542551,7.8361681 1.9800866,7.8256694 1.9281186,7.8175996 1.875689,7.8138557 1.8231821,7.8119163 c -0.039455,-0.00116 -0.078931,-0.00114 -0.1183987,-0.00119 0,0 -0.2834088,0.2059183 -0.2834088,0.2059183 v 0 c 0.039302,-4.94e-5 0.078607,-1.566e-4 0.1179067,3.44e-4 0.052013,9.525e-4 0.1040689,0.0029 0.1556773,0.00994 0.075498,0.010112 0.1506474,0.018288 0.2268472,0.0214 0.1306358,0.013777 0.259434,0.03828 0.3881207,0.064361 0.1428637,0.025956 0.2806553,0.073343 0.4239517,0.09814 0.2227002,0.042201 0.4459971,0.0806 0.670157,0.114299 0.3620103,0.055574 0.7241251,0.1113861 1.0847742,0.1751687 0.4006016,0.077421 0.7991855,0.1651182 1.2020391,0.2304354 0.8458358,0.1393441 -0.3452641,-0.055611 0.6037905,0.09506 0.563808,0.089509 1.126128,0.1894385 1.6856009,0.3029387 0.1626653,0.034267 0.3257663,0.066528 0.4879964,0.1028007 0.4728586,0.1057243 0.9414761,0.2299642 1.4046258,0.372197 0,0 0.2854309,-0.195154 0.2854309,-0.195154 z"
       id="path2811"
       style="fill:none;fill-opacity:1;stroke:#000000;stroke-width:0.185208;stroke-miterlimit:4;stroke-dasharray:none;stroke-opacity:1" />
    <path
       d="M 6.734839,3.5740836 C 6.702718,3.7209014 6.691689,3.8712149 6.676807,4.0204859 6.647611,4.271989 6.63031,4.5244568 6.612016,4.7768915 6.597361,4.999853 6.569876,5.2215566 6.553512,5.4443961 6.539687,5.6144187 6.535441,5.78488 6.533165,5.9553666 c -0.00167,0.097798 -0.00243,0.1956065 -0.00319,0.2934144 -6.614e-4,0.061247 9.08e-5,0.1224934 -7.9e-6,0.1837418 -1.233e-4,0.039515 -5.72e-5,0.019995 -1.974e-4,0.05856 0,0 0.3113715,-0.1586601 0.3113715,-0.1586601 v 0 c -1.569e-4,-0.038426 -7.99e-5,-0.018976 -2.305e-4,-0.058355 -1.635e-4,-0.061181 5.027e-4,-0.122364 -5.292e-4,-0.1835407 -0.00122,-0.096666 -0.00241,-0.1933347 -0.00257,-0.2900092 0.00106,-0.1687923 0.00475,-0.3376285 0.015497,-0.5061143 0.016412,-0.22273 0.045204,-0.4442648 0.057781,-0.6672866 0.016886,-0.2523305 0.030294,-0.5051232 0.066581,-0.7556831 0.019026,-0.1504301 0.031319,-0.3028037 0.072317,-0.4493418 0,0 -0.3151497,0.1519907 -0.3151497,0.1519907 z"
       id="path2813"
       style="fill:none;fill-opacity:1;stroke:#000000;stroke-width:0.264583;stroke-miterlimit:4;stroke-dasharray:none;stroke-opacity:1" />
    <path
       d="M 3.746061,6.3657761 C 3.7326678,6.3572327 3.7198011,6.3478029 3.7058822,6.3401433 3.6452653,6.3067825 3.5823027,6.2778736 3.5206294,6.2465093 3.3951491,6.1826974 3.2705653,6.1172535 3.1461705,6.051358 2.9343876,5.9381443 2.7293638,5.8138418 2.5433277,5.6616855 2.398051,5.5354054 2.2748991,5.386491 2.1642973,5.2295878 2.1022318,5.1316793 2.0359331,5.0351614 1.9942201,4.9265293 1.9539068,4.817354 1.9341443,4.7029593 1.9093152,4.5898407 1.8926843,4.5213718 1.8848605,4.4515506 1.8814234,4.3813302 c -0.0019,-0.052325 -0.00148,-0.1046961 -0.00126,-0.1570445 -0.027324,-0.16999 -0.3338953,0.1508088 -0.3357443,0.1521735 -0.014049,0.010372 -0.00894,0.033763 -0.013725,0.050557 -0.014957,0.052534 -0.030864,0.1047928 -0.046267,0.1571975 -0.066494,0.2115894 -0.1231859,0.4256018 -0.1699089,0.6423371 -0.036381,0.16778 -0.050391,0.3385886 -0.068079,0.508935 -0.015742,0.1922915 -0.04803,0.3823611 -0.077898,0.5728076 -0.027255,0.1605349 -0.064587,0.3190743 -0.099153,0.478137 -0.02956,0.1324287 -0.056718,0.2649072 -0.0899922,0.3965398 -0.0351093,0.1381358 -0.0616819,0.2780411 -0.0899237,0.4176728 -0.0151971,0.082809 -0.0257805,0.1668894 -0.0469565,0.2484647 -0.0196556,0.081246 -0.0338085,0.1636291 -0.0443647,0.2465099 -0.006851,0.086039 0.0500275,0.1105424 0.12300565,0.126561 0.072147,0.00442 0.14434252,0.00772 0.21650282,0.011943 0,0 0.2770047,-0.1987259 0.2770047,-0.1987259 v 0 c -0.069283,-0.00428 -0.1384695,-0.00978 -0.207794,-0.013308 -0.024462,-0.00311 -0.077319,-0.00478 -0.092811,-0.029767 -0.00821,-0.013248 -0.00459,-0.037742 -0.00416,-0.05063 0.010363,-0.082214 0.025842,-0.1634157 0.046703,-0.2436445 0.017144,-0.082092 0.029215,-0.1650759 0.042622,-0.2478265 0.025779,-0.138889 0.052152,-0.2776262 0.087825,-0.4144068 0.034315,-0.1321207 0.062242,-0.2653331 0.091069,-0.3987133 0.03224,-0.1586494 0.068425,-0.3166171 0.092221,-0.476836 0.028794,-0.191829 0.065949,-0.3826592 0.080968,-0.5762961 0.016376,-0.1691132 0.032617,-0.3381936 0.067825,-0.504748 0.044433,-0.2163435 0.098973,-0.4300453 0.1707937,-0.6391363 0.017752,-0.053228 0.033936,-0.1070154 0.053556,-0.1595839 0.00609,-0.016317 0.036581,-0.054279 0.020278,-0.048153 -0.3225574,0.1212022 -0.299939,0.1167469 -0.2956481,0.1508704 3.61e-5,0.052819 1.362e-4,0.1056738 0.00327,0.1584196 0.00502,0.071695 0.014553,0.1427657 0.032705,0.2124638 0.027086,0.1139553 0.051129,0.2287143 0.089218,0.3397668 0.00715,0.019063 0.012974,0.03868 0.021465,0.057186 0.04109,0.089564 0.1044478,0.168588 0.1552935,0.252372 0.1154901,0.1571839 0.2445032,0.3048058 0.3882567,0.4368567 0.1882612,0.1539312 0.3973145,0.2773574 0.6112491,0.3923033 0.1243847,0.0646 0.2481322,0.1301474 0.3711719,0.1972786 0.042061,0.02295 0.12846,0.069361 0.1732018,0.097108 0.012105,0.00751 0.023257,0.016452 0.034887,0.024678 0,0 0.2972366,-0.1858743 0.2972366,-0.1858743 z"
       id="path2815"
       style="fill:none;fill-opacity:1;stroke:#000000;stroke-width:0.264583;stroke-miterlimit:4;stroke-dasharray:none;stroke-opacity:1" />
    <path
       d="m 4.3477735,7.6691326 c -0.2005534,0.00543 -0.3996132,0.034604 -0.5990831,0.054357 -0.3610507,0.031503 -0.7212397,0.073185 -1.079213,0.1298676 -0.1808443,0.026548 -0.359689,0.06378 -0.5370538,0.1075446 -0.1649432,0.046252 -0.3269645,0.102825 -0.4910275,0.1523648 -0.1305207,0.04172 -0.2664394,0.056801 -0.4023759,0.067433 -0.1676157,0.00677 -0.33696265,0.02163 -0.50420276,0.00238 -0.041257,-0.011011 -0.0615918,-0.010997 -0.0278557,-0.04518 0.0394642,-0.039987 -1.0566e-4,-0.00109 0.0442033,-0.04413 C 0.83388363,8.0124766 0.93186997,7.9504122 1.0311733,7.8917512 0.96317669,7.9314241 0.8935944,7.9684962 0.82718349,8.01077 0.79081939,8.033918 0.90285789,7.969463 0.94090946,7.949208 0.98197896,7.927348 1.0230737,7.905523 1.064541,7.884427 1.1720119,7.8297532 1.2813301,7.782279 1.3928719,7.7367347 1.5241903,7.6881773 1.6557463,7.6392172 1.7924044,7.6078546 c 0.05507,-0.01279 0.110651,-0.023225 0.1653021,-0.03774 0,0 0.2771902,-0.2129332 0.2771902,-0.2129332 v 0 c -0.055252,0.015573 -0.1108481,0.028416 -0.1668301,0.041295 -0.1414054,0.028693 -0.275834,0.082177 -0.4113702,0.1305179 -0.069213,0.028165 -0.146752,0.058891 -0.2143525,0.090014 C 1.1912905,7.7345942 0.95286622,7.8770885 0.71360509,8.0142387 0.61215812,8.0758037 0.51225526,8.1419102 0.42963143,8.2280532 c -0.0322512,0.037147 -0.0823813,0.1048036 -0.0159975,0.1423157 0.012156,0.00687 0.0267418,0.00804 0.0401127,0.012065 0.16931222,0.01928 0.34063727,0.00249 0.51053699,0.00106 C 1.1013882,8.3735239 1.2397259,8.3645209 1.3714353,8.3218789 1.534263,8.2718601 1.695435,8.2161634 1.8592954,8.1698031 2.0404334,8.1235357 2.2219828,8.0789725 2.4070533,8.0507009 2.764091,7.9887376 3.1240682,7.9441027 3.4855872,7.9183339 c 0.1925928,-0.016055 0.3852637,-0.04254 0.5786442,-0.04319 0,0 0.2835421,-0.2060054 0.2835421,-0.2060054 z"
       id="path2823"
       style="fill:none;fill-opacity:1;stroke:#000000;stroke-width:0.132292;stroke-miterlimit:4;stroke-dasharray:none;stroke-opacity:1" />
  </g>
</svg>
