<svg width="32" height="32" xmlns="http://www.w3.org/2000/svg">
 <desc/>

 <g>
  <title>background</title>
  <rect x="-1" y="-1" width="34" height="34" id="canvas_background" fill="none"/>
 </g>
 <g>
  <title>Layer 1</title>
  <g stroke="null" id="svg_17">
   <path stroke="#000000" d="m2.000147,18.301375c0,0.117438 0.034397,0.034396 0.117439,0.117438c0.083043,0.083043 0,0.352319 0.117439,0.352319c0,0 0.117439,0 0.117439,0.117438c0,0.11744 0.117439,0.11744 0.117439,0.23488c0,0.11744 0.117439,0.11744 0.117439,0.234878c0,0.11744 0.034397,0.151837 0.117439,0.23488c0.083043,0.083043 -0.083043,0.269275 0,0.352318c0.083042,0.083043 0.034397,0.151837 0.117439,0.23488c0.083042,0.083043 0.117439,0.117438 0.117439,0.117438c0.117439,0 0.117439,0.11744 0.117439,0.352319c0,0 0.117439,0 0.117439,0.117438c0,0.11744 0.117439,0.23488 0.117439,0.352319c0,0.117438 0.117439,0.117438 0.117439,0.234878c0,0 0.117439,0 0.117439,0.11744c0,0.11744 0.117439,0.11744 0.117439,0.234878c0,0.11744 0.072497,0.126379 0.117439,0.23488c0.063558,0.153443 0.151837,0.151835 0.234879,0.234878c0.083043,0.083043 0.034397,0.034397 0.117439,0.11744c0.083043,0.083043 0.034398,0.269276 0.117439,0.352318c0.083042,0.083043 0.151837,0.034397 0.234879,0.11744c0.083043,0.083043 0.034397,0.151837 0.117439,0.23488c0.083042,0.083042 0,0.234878 0,0.234878c0,0.11744 0.117439,0.11744 0.117439,0.23488c0,0.117438 0.11744,0.117438 0.11744,0.23488c0,0.117438 0.034397,0.151834 0.117439,0.234877c0.083044,0.083043 0.034398,0.034398 0.11744,0.117441c0.083042,0.08304 0.034398,0.151834 0.11744,0.234877c0.083044,0.083043 0.034397,0.151837 0.117439,0.23488c0.083044,0.083043 0,0.23488 0.117439,0.352318c0,0 0,0.117441 0,0.23488c0,0 0,0.117438 0,0.23488c0,0.117438 0.11744,0.117438 0.11744,0.117438c0,0.117441 0.034398,0.151839 0.11744,0.23488c0.083042,0.083043 0.151837,0.034396 0.234879,0.117438c0.083044,0.083043 0.034397,0.151837 0.117439,0.23488c0.083042,0.08304 0.117439,0.117438 0.234879,0.117438c0.117439,0 0.117439,0 0.234879,0c0.11744,0 0.234879,0 0.234879,0c0.117439,0 0.234879,0 0.234879,0c0.11744,0 0.234879,0 0.234879,0c0.11744,0 0.234879,0 0.352318,0c0,0 0.11744,0 0.234879,0c0.11744,0 0.11744,0 0.23488,0c0.117439,0 0.234878,0 0.352318,0c0.11744,0 0.11744,0 0.234879,0c0.11744,0 0.234879,-0.117438 0.352318,-0.117438c0,0 0.11744,0 0.234879,0c0,0 0.11744,0 0.23488,0c0.117439,0 0.234878,0 0.352318,0c0.11744,0 0.234879,0 0.352318,0c0.11744,0 0.23488,0 0.352318,0c0.11744,0 0.23488,0 0.352319,0c0,0 0.117438,0.117438 0.234878,0.117438c0.11744,0 0.23488,0 0.23488,0c0.11744,0 0.234878,0 0.352318,0c0,0 0.081435,0.053884 0.234878,0.117441c0.1085,0.044943 0.11744,0 0.23488,0c0.11744,0 0.234878,0 0.352318,0c0.11744,0 0.23488,0 0.469758,0c0.23488,0 0.352319,0 0.469758,0c0.11744,0 0.352318,0 0.469758,0c0.11744,0 0.23488,0 0.352319,0c0.234878,0 0.234878,0 0.352318,0c0.117438,0 0.234878,0 0.234878,0c0.11744,0 0.23488,0 0.352318,0c0.11744,0 0.23488,0 0.352319,0c0.117438,0 0.35546,-0.026982 0.469758,0c0.255577,0.060332 0.352318,0.117438 0.587196,0.117438c0.23488,0 0.352319,0 0.469759,0c0.117438,0 0.234878,0 0.234878,0c0.11744,0 0.234878,0 0.352318,0c0.11744,0 0.24382,-0.044943 0.352318,0c0.153443,0.063558 0.23488,0.117441 0.23488,0.117441c0.11744,0 0.234878,0 0.352318,0c0.11744,0 0.23488,0 0.352318,0c0.11744,0 0.23488,0 0.352319,0c0.117438,0 0.352318,0.117438 0.587198,0.117438c0.234878,0 0.352318,0 0.469758,0c0.117438,0 0.352318,0 0.469756,0c0.11744,0 0.23488,0 0.352319,0c0.117438,0 0.234878,0 0.352318,0c0.117438,0 0.117438,0 0.23488,0c0.117438,0 0.234877,0 0.352318,0c0.117438,0 0.23488,0 0.352318,0c0,0 0.117438,0 0.23488,0c0.117438,0 0.117438,0 0.352318,0c0,0 0.117438,0 0.23488,0c0,0 0.117438,0 0.234877,0c0.117441,0 0.117441,0 0.23488,0c0.117441,0 0.034401,-0.034398 0.117441,-0.117438c0.08304,-0.08304 0.151834,-0.034398 0.234877,-0.117441c0.166086,-0.166086 0.361258,-0.072495 0.469759,-0.117438c0.153441,-0.063558 0.23488,-0.117441 0.352318,-0.23488c0.117438,-0.117438 0.151837,-0.151837 0.23488,-0.23488c0.08304,-0.08304 0.234877,-0.117438 0.234877,-0.117438c0.117441,0 0.151839,-0.034398 0.23488,-0.117438c0.083043,-0.083043 0,-0.117441 0,-0.23488c0,-0.117441 0.117441,-0.117441 0.117441,-0.23488c0,-0.117438 0.117438,-0.23488 0.117438,-0.352318c0,-0.117438 0.034398,-0.269278 0.117438,-0.352318c0.083043,-0.083043 0.117441,-0.117441 0.117441,-0.117441c0.117438,0 0.090456,-0.120581 0.117438,-0.234877c0.060332,-0.255577 0.171322,-0.316315 0.23488,-0.469759c0.044941,-0.1085 0.171319,-0.081437 0.234877,-0.234878c0.044943,-0.108501 0.171322,-0.081438 0.23488,-0.23488c0.044941,-0.1085 0.117441,-0.352318 0.23488,-0.352318c0,0 0.053881,-0.081438 0.117438,-0.234878c0.044943,-0.108501 0.055701,-0.134979 0.117441,-0.23488c0.138058,-0.223384 0.151837,-0.269275 0.23488,-0.352318c0.08304,-0.083042 0.189934,-0.12638 0.234877,-0.23488c0.063558,-0.153443 0.189936,-0.243817 0.23488,-0.352318c0.063558,-0.153441 0.28876,-0.198877 0.352318,-0.352318c0.044943,-0.108501 0.081435,-0.4062 0.23488,-0.469758c0.108498,-0.044942 0.189936,-0.126379 0.23488,-0.23488c0.063558,-0.15344 0.28876,-0.198875 0.352318,-0.352318c0.044943,-0.1085 0.117438,-0.11744 0.23488,-0.469758c0,0 0.034396,-0.034397 0.117438,-0.11744c0.08304,-0.083042 0.034396,-0.151835 0.117438,-0.234878c0.083043,-0.083043 0.117441,-0.11744 0,-0.11744c0,0 -0.234877,0 -0.352318,0c-0.117438,0 -0.23488,0 -0.352318,0c-0.23488,0 -0.352318,0 -0.469759,0c-0.117438,0 -0.352318,0 -0.469756,0c-0.23488,0 -0.352318,0 -0.469756,0c-0.117441,0 -0.23488,0 -0.352321,0c-0.117438,0 -0.234877,0 -0.352318,0c-0.117438,0 -0.23488,0 -0.352318,0c-0.117438,0 -0.23488,0 -0.352318,0c-0.117438,0 -0.352318,0 -0.469756,0c-0.117441,0 -0.23488,0 -0.352321,0c-0.117438,0 -0.234877,0 -0.352318,0c-0.117438,0 -0.234877,0 -0.352318,0c-0.117438,0 -0.23488,0.11744 -0.352318,0.11744c-0.117438,0 -0.23488,0 -0.352318,0c-0.23488,0 -0.352318,0 -0.469759,0c-0.117438,0 -0.234877,0 -0.352318,0c-0.117438,0 -0.23488,0 -0.352318,0c-0.117438,0 -0.23488,0 -0.352318,0c-0.117438,0 -0.23488,0 -0.469759,0c0,0 -0.117438,0 -0.234877,0c-0.117441,0 -0.23488,0 -0.352319,0c-0.11744,0 -0.234878,0 -0.352318,0c-0.11744,0 -0.23488,0 -0.352318,0c-0.11744,0 -0.11744,0 -0.23488,0c-0.117438,0 -0.117438,0 -0.234878,0c-0.11744,0 -0.23488,0 -0.352318,0c-0.11744,0 -0.23488,0 -0.23488,0c-0.11744,0 -0.23488,0 -0.23488,0c-0.117438,0 -0.234878,0 -0.234878,0c-0.11744,0 -0.23488,0 -0.23488,0c-0.117438,0 -0.234878,0 -0.352318,0c-0.11744,0 -0.11744,0 -0.234878,0c-0.11744,0 -0.11744,0 -0.23488,0c-0.11744,0 -0.11744,0 -0.234878,0c-0.11744,0 -0.11744,0 -0.23488,0c-0.11744,0 -0.234878,0 -0.352318,0c0,0 -0.11744,0 -0.234878,0c-0.11744,0 -0.11744,0 -0.23488,0c-0.11744,0 -0.23488,0 -0.23488,0c-0.117438,0 -0.234878,0 -0.352318,0c0,0 -0.117438,0 -0.234878,0c-0.11744,0 -0.23488,0 -0.352319,0c0,0 -0.117438,0 -0.234878,0c-0.11744,0 -0.23488,0 -0.352318,0c-0.11744,0 -0.151837,-0.034397 -0.23488,-0.11744c-0.083043,-0.083043 -0.234878,0 -0.352318,0c0,0 -0.11744,0 -0.234878,0c-0.11744,0 -0.23488,0 -0.352319,0c0,0 -0.11744,0 -0.234878,0c0,0 -0.11744,0 -0.23488,0c-0.117438,0 -0.234878,0 -0.234878,0c-0.23488,-0.11744 -0.23488,-0.11744 -0.352319,-0.11744c-0.117438,0 -0.234878,0 -0.234878,0c-0.11744,0 -0.23488,0 -0.352318,0c0,0 -0.11744,0 -0.23488,0c-0.11744,0 -0.234878,0 -0.352318,0c-0.11744,0 -0.11744,0 -0.234878,0c-0.11744,0 -0.23488,0 -0.352319,0c-0.11744,0 -0.234878,0 -0.352318,0c-0.11744,0 -0.23488,0 -0.352318,0c-0.11744,0 -0.23488,0 -0.352319,0c-0.352319,0 -0.469758,0 -0.587197,0c-0.11744,0 -0.11744,0 -0.23488,0c-0.117439,0 -0.234879,0 -0.352318,0c-0.117439,0 -0.234879,0 -0.352318,0c-0.11744,0 -0.23488,0 -0.352319,0c-0.117439,0 -0.234879,0 -0.352319,0c-0.117439,0 -0.234879,0 -0.352318,0c-0.117439,0 -0.234879,0 -0.352318,0c-0.11744,0 -0.23488,0 -0.352319,0c-0.234879,0 -0.352319,0 -0.469758,0c-0.11744,0 -0.234879,0 -0.352318,0c-0.11744,0 -0.234879,0 -0.352319,0c-0.11744,0 -0.234879,0 -0.352318,0c-0.11744,0 -0.23488,0 -0.352319,0c-0.11744,0 -0.234879,0 -0.352318,0c-0.117439,0 -0.234879,0 -0.234879,0c-0.117439,0 -0.117439,-0.117438 -0.234879,-0.117438c-0.117439,0 -0.234879,0 -0.352318,0c-0.117439,0 -0.117439,0 -0.234879,0c-0.117439,0 -0.234879,0 -0.352318,0c0,0 -0.117439,0 -0.234879,-0.11744c0,0 -0.117439,0 -0.234879,0c0,0 -0.117439,0 -0.234879,0l0,-0.11744" id="svg_15" stroke-opacity="null" stroke-width="null" fill="#000000"/>
   <path stroke="#000000" d="m13.744092,18.536253c0,-0.117438 0,-0.234878 0,-0.352318c0,-0.11744 0,-0.234878 0,-0.352318c0,-0.11744 0,-0.23488 0,-0.352318c0,-0.11744 0,-0.23488 0,-0.352319c0,-0.117438 0,-0.234878 0,-0.234878c0,-0.23488 0,-0.352318 0,-0.352318c0,-0.11744 0.053881,-0.198878 0.117438,-0.352319c0.044942,-0.1085 0,-0.234878 0,-0.352318c0,-0.234878 0,-0.352318 0,-0.469758c0,-0.11744 0,-0.234878 0,-0.352318c0,-0.11744 0,-0.23488 0,-0.352318c0,-0.23488 0,-0.352319 0,-0.469758c0,-0.11744 0,-0.23488 0,-0.23488c0,-0.11744 0,-0.234878 0,-0.352318c0,-0.11744 0,-0.23488 0,-0.352318c0,0 0,-0.11744 0,-0.23488c0,-0.11744 0,-0.234879 0,-0.234879c0,-0.117439 0,-0.234879 0,-0.352318c0,-0.11744 0,-0.352319 0,-0.469758c0,-0.11744 0,-0.234879 0,-0.352319c0,-0.352318 0,-0.352318 0,-0.587197c0,-0.11744 0,-0.234879 0,-0.352319c0,-0.117439 0,-0.234879 0,-0.469758c0,-0.117439 0,-0.234879 0,-0.352318c0,-0.11744 0,-0.234879 0,-0.352319c0,-0.234879 0,-0.352318 0,-0.469758c0,-0.234879 0,-0.352318 0,-0.469758c0,-0.234879 0,-0.469758 0,-0.704637c0,-0.234879 0.11744,-0.469758 0.11744,-0.704637c0,-0.234879 0,-0.469758 0,-0.704637c0,-0.469758 -0.131687,-0.925268 0.11744,-1.174394c0.083043,-0.083043 0.11744,-0.117439 0.11744,-0.352318c0,-0.117439 0.053881,-0.081437 0.117438,-0.234879c0.044942,-0.1085 0,-0.234879 0,-0.352319c0,-0.117439 0,-0.234879 0,-0.234879c0,-0.117439 0,-0.234879 0,-0.352318c0,-0.117439 0,-0.234879 0,-0.234879c0,-0.117439 0,-0.234879 0,-0.352318c0,0 0.11744,-0.234879 0,-0.234879c-0.11744,0 0.171322,0.081437 0.23488,0.234879c0.044942,0.1085 0.139284,0.198772 0.352318,0.352318c0.134734,0.097111 0.23488,0.234879 0.352319,0.352318c0.117438,0.117439 0.151835,0.151836 0.234878,0.234879c0.083043,0.083042 0.034397,0.151837 0.11744,0.234879c0.083042,0.083041 0.034396,0.034397 0.117438,0.11744c0.083043,0.083043 0.120582,0.090457 0.23488,0.117439c0.255578,0.060334 0.151837,0.151837 0.23488,0.234879c0.083042,0.083042 0.117438,0.117439 0.234878,0.117439c0,0 0.081437,0.053882 0.234878,0.117439c0.1085,0.044943 0.11744,0.11744 0.23488,0.11744c0,0 0.034397,0.034397 0.11744,0.117439c0.083043,0.083043 0.234878,0.117439 0.352318,0.234879c0.11744,0.117439 0.151837,0.151837 0.234878,0.234879c0.083043,0.083043 0.151837,0.034397 0.23488,0.11744c0.083042,0.083042 0.11744,0.117439 0.11744,0.234879c0,0 0.034397,0.034397 0.11744,0.117439c0.083043,0.083043 0.034396,0.269276 0.117438,0.352319c0.083043,0.083043 0.11744,0.117439 0.11744,0.117439c0.11744,0 0.034397,0.269276 0.11744,0.352319c0.083042,0.083042 0.234878,0.117439 0.234878,0.234879c0,0.117439 0.034397,0.151837 0.11744,0.234879c0.083043,0.083042 0.11744,0.117439 0.11744,0.117439c0,0.11744 0.034397,0.151837 0.11744,0.234879c0.166084,0.166084 0.117438,0.234879 0.117438,0.352319c0,0 0.034398,0.034397 0.11744,0.117439c0.083043,0.083042 0.171321,0.081437 0.234878,0.234879c0.044942,0.1085 0.034398,0.151837 0.11744,0.234879c0.083043,0.083042 0.186234,-0.048644 0.352318,0.11744c0.083042,0.083042 0,0.234879 0.11744,0.352318c0.11744,0.11744 0.23488,0.234879 0.352318,0.352319c0,0 0.034398,0.034397 0.11744,0.117439c0.083043,0.083042 0.171322,0.081437 0.23488,0.234879c0.044942,0.1085 0.034397,0.151837 0.117438,0.234879c0.083043,0.083042 0.151837,0.034398 0.23488,0.11744c0.083042,0.083042 0.034398,0.269276 0.11744,0.352318c0.083042,0.083042 0.117438,0.11744 0.234878,0.234879c0.11744,0.11744 0.11744,0.234879 0.23488,0.352319c0.11744,0.117439 0.068794,0.186234 0.234878,0.352318c0.083043,0.083042 0.189938,0.126379 0.23488,0.234879c0.063558,0.153443 0.081437,0.28876 0.234878,0.352319c0.1085,0.044943 0.11744,0.117439 0.23488,0.234879c0,0 0.090456,0.003142 0.117438,0.117439c0.060333,0.255578 0.23488,0.352318 0.23488,0.352318c0.11744,0 0.11744,0.11744 0.234878,0.23488c0.11744,0.11744 0.11744,0.234878 0.23488,0.234878c0.117438,0 0.081435,0.171322 0.23488,0.23488c0.108498,0.044942 0.081331,0.139285 0.234877,0.352318c0.097112,0.134736 0.189936,0.12638 0.23488,0.23488c0.063558,0.153443 0.28876,0.198877 0.352318,0.352318c0.044943,0.108501 0.117441,0.234878 0.23488,0.352318c0.117438,0.11744 0.171322,0.198875 0.23488,0.352318c0.044943,0.1085 0.072495,0.12638 0.117438,0.23488c0.063558,0.153443 0.151839,0.151837 0.23488,0.234878c0.083043,0.083043 0.034396,0.151837 0.117438,0.23488c0.083043,0.083043 0.151839,0.034398 0.23488,0.11744c0.08304,0.083042 0.034398,0.151835 0.117441,0.234878c0.08304,0.083042 0.151837,0.034398 0.234877,0.11744c0.083043,0.083043 0.034401,0.151837 0.117441,0.234878c0.08304,0.083042 0.151834,0.034397 0.234877,0.11744c0.083043,0.083043 0.151839,0.034398 0.23488,0.11744c0.083043,0.083043 0.081438,0.171321 0.23488,0.234878c0.108498,0.044942 0.117438,0.11744 0.117438,0.11744c-0.117438,0 -0.234877,0 -0.352318,0c-0.117438,0 -0.23488,0 -0.469756,0c-0.117441,0 -0.23488,0 -0.352318,0c-0.117441,0 -0.23488,0 -0.352321,0c-0.117438,0 -0.234877,0 -0.352318,0c-0.23488,0 -0.352318,0 -0.469756,0c-0.117441,0 -0.23488,0 -0.352318,0c-0.117441,0 -0.23488,0 -0.352321,0c-0.117438,0 -0.234877,0 -0.234877,0c-0.117441,0 -0.23488,0 -0.352319,0c-0.11744,0 -0.234878,0 -0.234878,0c-0.11744,0 -0.23488,0 -0.352319,0c-0.117438,0 -0.234878,0 -0.352318,0c-0.234878,0 -0.269275,-0.034397 -0.352318,-0.11744c-0.083043,-0.083043 -0.352318,0 -0.469758,0c0,0 -0.126379,0.044942 -0.23488,0c-0.15344,-0.063558 -0.243817,-0.072497 -0.352318,-0.117438c-0.153443,-0.063558 -0.352318,-0.11744 -0.469758,-0.11744c-0.11744,0 -0.234878,0 -0.234878,0c-0.11744,0 -0.23488,0 -0.23488,0c-0.11744,0 -0.234878,0 -0.352318,0c-0.11744,0 -0.23488,0 -0.352318,0c-0.11744,0 -0.23488,0 -0.23488,0c-0.117438,0 -0.234878,0 -0.352318,0c-0.11744,0 -0.11744,0 -0.23488,0c-0.117438,0 -0.234878,0 -0.234878,0c-0.11744,0 -0.234878,0 -0.352318,0c0,0 -0.11744,0 -0.23488,0c-0.11744,0 -0.234878,0 -0.352318,0c-0.11744,0 -0.23488,0 -0.352318,0c-0.11744,0 -0.23488,0 -0.352319,0c-0.117438,0 -0.117438,0 -0.234878,0c-0.11744,0 -0.234878,0 -0.352318,0c-0.11744,0 -0.11744,0 -0.23488,0c-0.11744,0 -0.11744,0 -0.234878,0c-0.11744,0 -0.23488,0 -0.352318,0c-0.11744,0 -0.23488,0 -0.352319,0c0,0 -0.11744,0 -0.234878,0c-0.11744,0 -0.11744,0.11744 -0.23488,0.11744c0,0 -0.11744,0 -0.234878,0l-0.11744,0l-0.11744,0l0,0" id="svg_16" stroke-opacity="null" stroke-width="null" fill="#ffffff"/>
  </g>
 </g>
</svg>