<svg width="48.00000000000001" height="48.00000000000001" xmlns="http://www.w3.org/2000/svg">
 <desc/>

 <g>
  <title>background</title>
  <rect x="-1" y="-1" width="50" height="50" id="canvas_background" fill="none"/>
 </g>
 <g>
  <title>Layer 1</title>
  <path d="m3.833468,26.416651c0,0.166664 0.048815,0.048813 0.166666,0.166664c0.117851,0.117851 0,0.499998 0.166666,0.499998c0,0 0.166666,0 0.166666,0.166664c0,0.166666 0.166666,0.166666 0.166666,0.333332c0,0.166666 0.166666,0.166666 0.166666,0.33333c0,0.166666 0.048815,0.215481 0.166666,0.333332c0.117851,0.117851 -0.117851,0.382145 0,0.499996c0.11785,0.117851 0.048815,0.215481 0.166666,0.333332c0.11785,0.117851 0.166666,0.166664 0.166666,0.166664c0.166666,0 0.166666,0.166666 0.166666,0.499998c0,0 0.166666,0 0.166666,0.166664c0,0.166666 0.166666,0.333332 0.166666,0.499998c0,0.166664 0.166666,0.166664 0.166666,0.33333c0,0 0.166666,0 0.166666,0.166666c0,0.166666 0.166666,0.166666 0.166666,0.33333c0,0.166666 0.102885,0.179352 0.166666,0.333332c0.090199,0.21776 0.215481,0.215479 0.333331,0.33333c0.117851,0.117851 0.048815,0.048815 0.166666,0.166666c0.117851,0.117851 0.048816,0.382147 0.166666,0.499996c0.11785,0.117851 0.215481,0.048815 0.333331,0.166666c0.117851,0.117851 0.048815,0.215481 0.166666,0.333332c0.117849,0.117849 0,0.33333 0,0.33333c0,0.166666 0.166665,0.166666 0.166665,0.333332c0,0.166664 0.166666,0.166664 0.166666,0.333332c0,0.166664 0.048815,0.215477 0.166665,0.333328c0.117852,0.117851 0.048816,0.048817 0.166666,0.166668c0.117849,0.117847 0.048816,0.215477 0.166666,0.333328c0.117852,0.117851 0.048815,0.215481 0.166665,0.333332c0.117852,0.117851 0,0.333332 0.166665,0.499996c0,0 0,0.166668 0,0.333332c0,0 0,0.166664 0,0.333332c0,0.166664 0.166666,0.166664 0.166666,0.166664c0,0.166668 0.048817,0.215485 0.166666,0.333332c0.11785,0.117851 0.215481,0.048813 0.333331,0.166664c0.117852,0.117851 0.048815,0.215481 0.166665,0.333332c0.117849,0.117847 0.166665,0.166664 0.333331,0.166664c0.166665,0 0.166665,0 0.333331,0c0.166666,0 0.333331,0 0.333331,0c0.166665,0 0.333331,0 0.333331,0c0.166666,0 0.333331,0 0.333331,0c0.166666,0 0.333331,0 0.499996,0c0,0 0.166666,0 0.333331,0c0.166666,0 0.166666,0 0.333332,0c0.166665,0 0.33333,0 0.499996,0c0.166666,0 0.166666,0 0.333331,0c0.166666,0 0.333331,-0.166664 0.499996,-0.166664c0,0 0.166666,0 0.333331,0c0,0 0.166666,0 0.333332,0c0.166665,0 0.33333,0 0.499996,0c0.166666,0 0.333331,0 0.499996,0c0.166666,0 0.333332,0 0.499996,0c0.166666,0 0.333332,0 0.499998,0c0,0 0.166664,0.166664 0.33333,0.166664c0.166666,0 0.333332,0 0.333332,0c0.166666,0 0.33333,0 0.499996,0c0,0 0.11557,0.076469 0.33333,0.166668c0.153978,0.063782 0.166666,0 0.333332,0c0.166666,0 0.33333,0 0.499996,0c0.166666,0 0.333332,0 0.666662,0c0.333332,0 0.499998,0 0.666662,0c0.166666,0 0.499996,0 0.666662,0c0.166666,0 0.333332,0 0.499998,0c0.33333,0 0.33333,0 0.499996,0c0.166664,0 0.33333,0 0.33333,0c0.166666,0 0.333332,0 0.499996,0c0.166666,0 0.333332,0 0.499998,0c0.166664,0 0.504456,-0.038292 0.666662,0c0.362705,0.085621 0.499996,0.166664 0.833326,0.166664c0.333332,0 0.499998,0 0.666664,0c0.166664,0 0.33333,0 0.33333,0c0.166666,0 0.33333,0 0.499996,0c0.166666,0 0.34602,-0.063782 0.499996,0c0.21776,0.090199 0.333332,0.166668 0.333332,0.166668c0.166666,0 0.33333,0 0.499996,0c0.166666,0 0.333332,0 0.499996,0c0.166666,0 0.333332,0 0.499998,0c0.166664,0 0.499996,0.166664 0.833328,0.166664c0.33333,0 0.499996,0 0.666662,0c0.166664,0 0.499996,0 0.66666,0c0.166666,0 0.333332,0 0.499998,0c0.166664,0 0.33333,0 0.499996,0c0.166664,0 0.166664,0 0.333332,0c0.166664,0 0.333328,0 0.499996,0c0.166664,0 0.333332,0 0.499996,0c0,0 0.166664,0 0.333332,0c0.166664,0 0.166664,0 0.499996,0c0,0 0.166664,0 0.333332,0c0,0 0.166664,0 0.333328,0c0.166668,0 0.166668,0 0.333332,0c0.166668,0 0.04882,-0.048817 0.166668,-0.166664c0.117847,-0.117847 0.215477,-0.048817 0.333328,-0.166668c0.235703,-0.235703 0.512684,-0.102882 0.666664,-0.166664c0.217758,-0.090199 0.333332,-0.166668 0.499996,-0.333332c0.166664,-0.166664 0.215481,-0.215481 0.333332,-0.333332c0.117847,-0.117847 0.333328,-0.166664 0.333328,-0.166664c0.166668,0 0.215485,-0.048817 0.333332,-0.166664c0.117851,-0.117851 0,-0.166668 0,-0.333332c0,-0.166668 0.166668,-0.166668 0.166668,-0.333332c0,-0.166664 0.166664,-0.333332 0.166664,-0.499996c0,-0.166664 0.048817,-0.382149 0.166664,-0.499996c0.117851,-0.117851 0.166668,-0.166668 0.166668,-0.166668c0.166664,0 0.128372,-0.171124 0.166664,-0.333328c0.085621,-0.362705 0.243134,-0.448902 0.333332,-0.666664c0.063778,-0.153978 0.24313,-0.115572 0.333328,-0.33333c0.063782,-0.15398 0.243134,-0.115574 0.333332,-0.333332c0.063778,-0.153978 0.166668,-0.499996 0.333332,-0.499996c0,0 0.076466,-0.115574 0.166664,-0.33333c0.063782,-0.15398 0.079048,-0.191557 0.166668,-0.333332c0.195927,-0.317019 0.215481,-0.382145 0.333332,-0.499996c0.117847,-0.117849 0.269547,-0.179354 0.333328,-0.333332c0.090199,-0.21776 0.26955,-0.346016 0.333332,-0.499996c0.090199,-0.217758 0.409798,-0.282238 0.499996,-0.499996c0.063782,-0.15398 0.11557,-0.576464 0.333332,-0.666662c0.153976,-0.06378 0.26955,-0.179352 0.333332,-0.333332c0.090199,-0.217756 0.409798,-0.282236 0.499996,-0.499996c0.063782,-0.153978 0.166664,-0.166666 0.333332,-0.666662c0,0 0.048813,-0.048815 0.166664,-0.166666c0.117847,-0.117849 0.048813,-0.215479 0.166664,-0.33333c0.117851,-0.117851 0.166668,-0.166666 0,-0.166666c0,0 -0.333328,0 -0.499996,0c-0.166664,0 -0.333332,0 -0.499996,0c-0.333332,0 -0.499996,0 -0.666664,0c-0.166664,0 -0.499996,0 -0.66666,0c-0.333332,0 -0.499996,0 -0.66666,0c-0.166668,0 -0.333332,0 -0.5,0c-0.166664,0 -0.333328,0 -0.499996,0c-0.166664,0 -0.333332,0 -0.499996,0c-0.166664,0 -0.333332,0 -0.499996,0c-0.166664,0 -0.499996,0 -0.66666,0c-0.166668,0 -0.333332,0 -0.5,0c-0.166664,0 -0.333328,0 -0.499996,0c-0.166664,0 -0.333328,0 -0.499996,0c-0.166664,0 -0.333332,0.166666 -0.499996,0.166666c-0.166664,0 -0.333332,0 -0.499996,0c-0.333332,0 -0.499996,0 -0.666664,0c-0.166664,0 -0.333328,0 -0.499996,0c-0.166664,0 -0.333332,0 -0.499996,0c-0.166664,0 -0.333332,0 -0.499996,0c-0.166664,0 -0.333332,0 -0.666664,0c0,0 -0.166664,0 -0.333328,0c-0.166668,0 -0.333332,0 -0.499998,0c-0.166666,0 -0.33333,0 -0.499996,0c-0.166666,0 -0.333332,0 -0.499996,0c-0.166666,0 -0.166666,0 -0.333332,0c-0.166664,0 -0.166664,0 -0.33333,0c-0.166666,0 -0.333332,0 -0.499996,0c-0.166666,0 -0.333332,0 -0.333332,0c-0.166666,0 -0.333332,0 -0.333332,0c-0.166664,0 -0.33333,0 -0.33333,0c-0.166666,0 -0.333332,0 -0.333332,0c-0.166664,0 -0.33333,0 -0.499996,0c-0.166666,0 -0.166666,0 -0.33333,0c-0.166666,0 -0.166666,0 -0.333332,0c-0.166666,0 -0.166666,0 -0.33333,0c-0.166666,0 -0.166666,0 -0.333332,0c-0.166666,0 -0.33333,0 -0.499996,0c0,0 -0.166666,0 -0.33333,0c-0.166666,0 -0.166666,0 -0.333332,0c-0.166666,0 -0.333332,0 -0.333332,0c-0.166664,0 -0.33333,0 -0.499996,0c0,0 -0.166664,0 -0.33333,0c-0.166666,0 -0.333332,0 -0.499998,0c0,0 -0.166664,0 -0.33333,0c-0.166666,0 -0.333332,0 -0.499996,0c-0.166666,0 -0.215481,-0.048815 -0.333332,-0.166666c-0.117851,-0.117851 -0.33333,0 -0.499996,0c0,0 -0.166666,0 -0.33333,0c-0.166666,0 -0.333332,0 -0.499998,0c0,0 -0.166666,0 -0.33333,0c0,0 -0.166666,0 -0.333332,0c-0.166664,0 -0.33333,0 -0.33333,0c-0.333332,-0.166666 -0.333332,-0.166666 -0.499998,-0.166666c-0.166664,0 -0.33333,0 -0.33333,0c-0.166666,0 -0.333332,0 -0.499996,0c0,0 -0.166666,0 -0.333332,0c-0.166666,0 -0.33333,0 -0.499996,0c-0.166666,0 -0.166666,0 -0.33333,0c-0.166666,0 -0.333332,0 -0.499998,0c-0.166666,0 -0.33333,0 -0.499996,0c-0.166666,0 -0.333332,0 -0.499996,0c-0.166666,0 -0.333332,0 -0.499997,0c-0.499997,0 -0.666662,0 -0.833327,0c-0.166666,0 -0.166666,0 -0.333332,0c-0.166665,0 -0.333331,0 -0.499996,0c-0.166665,0 -0.333331,0 -0.499996,0c-0.166666,0 -0.333332,0 -0.499997,0c-0.166665,0 -0.333331,0 -0.499997,0c-0.166665,0 -0.333331,0 -0.499996,0c-0.166665,0 -0.333331,0 -0.499996,0c-0.166666,0 -0.333332,0 -0.499997,0c-0.333331,0 -0.499997,0 -0.666662,0c-0.166666,0 -0.333331,0 -0.499996,0c-0.166666,0 -0.333331,0 -0.499997,0c-0.166666,0 -0.333331,0 -0.499996,0c-0.166666,0 -0.333332,0 -0.499997,0c-0.166666,0 -0.333331,0 -0.499997,0c-0.166666,0 -0.333331,0 -0.333331,0c-0.166666,0 -0.166666,-0.166664 -0.333331,-0.166664c-0.166666,0 -0.333331,0 -0.499997,0c-0.166666,0 -0.166666,0 -0.333331,0c-0.166666,0 -0.333331,0 -0.499997,0c0,0 -0.166666,0 -0.333331,-0.166666c0,0 -0.166666,0 -0.333331,0c0,0 -0.166666,0 -0.333331,0l0,-0.166666" id="svg_15" stroke-opacity="null" stroke-width="null" stroke="#000000" fill="#000000"/>
  <path d="m20.500024,26.749981c0,-0.166664 0,-0.33333 0,-0.499996c0,-0.166666 0,-0.33333 0,-0.499996c0,-0.166666 0,-0.333332 0,-0.499996c0,-0.166666 0,-0.333332 0,-0.499998c0,-0.166664 0,-0.33333 0,-0.33333c0,-0.333332 0,-0.499996 0,-0.499996c0,-0.166666 0.076466,-0.28224 0.166664,-0.499998c0.06378,-0.153978 0,-0.33333 0,-0.499996c0,-0.33333 0,-0.499996 0,-0.666662c0,-0.166666 0,-0.33333 0,-0.499996c0,-0.166666 0,-0.333332 0,-0.499996c0,-0.333332 0,-0.499998 0,-0.666662c0,-0.166666 0,-0.333332 0,-0.333332c0,-0.166666 0,-0.33333 0,-0.499996c0,-0.166666 0,-0.333332 0,-0.499996c0,0 0,-0.166666 0,-0.333332c0,-0.166666 0,-0.333331 0,-0.333331c0,-0.166665 0,-0.333331 0,-0.499996c0,-0.166666 0,-0.499997 0,-0.666662c0,-0.166666 0,-0.333331 0,-0.499997c0,-0.499996 0,-0.499996 0,-0.833327c0,-0.166666 0,-0.333331 0,-0.499997c0,-0.166665 0,-0.333331 0,-0.666662c0,-0.166665 0,-0.333331 0,-0.499996c0,-0.166666 0,-0.333331 0,-0.499997c0,-0.333331 0,-0.499996 0,-0.666662c0,-0.333331 0,-0.499996 0,-0.666662c0,-0.333331 0,-0.666662 0,-0.999993c0,-0.333331 0.166666,-0.666662 0.166666,-0.999993c0,-0.333331 0,-0.666662 0,-0.999993c0,-0.666662 -0.186886,-1.313104 0.166666,-1.666656c0.117851,-0.117851 0.166666,-0.166665 0.166666,-0.499996c0,-0.166666 0.076466,-0.115573 0.166664,-0.333331c0.06378,-0.153979 0,-0.333331 0,-0.499997c0,-0.166666 0,-0.333331 0,-0.333331c0,-0.166666 0,-0.333331 0,-0.499997c0,-0.166666 0,-0.333331 0,-0.333331c0,-0.166666 0,-0.333331 0,-0.499997c0,0 0.166666,-0.333331 0,-0.333331c-0.166666,0 0.243134,0.115572 0.333332,0.333331c0.06378,0.153979 0.197666,0.28209 0.499996,0.499997c0.19121,0.137817 0.333332,0.333331 0.499998,0.499997c0.166664,0.166665 0.215479,0.21548 0.33333,0.333331c0.117851,0.11785 0.048815,0.215481 0.166666,0.333331c0.117849,0.117849 0.048813,0.048815 0.166664,0.166666c0.117851,0.117851 0.171125,0.128373 0.333332,0.166665c0.362707,0.085624 0.215481,0.215481 0.333332,0.333332c0.117849,0.117849 0.166664,0.166666 0.33333,0.166666c0,0 0.115572,0.076467 0.33333,0.166665c0.153978,0.063781 0.166666,0.166666 0.333332,0.166666c0,0 0.048815,0.048814 0.166666,0.166665c0.117851,0.117851 0.33333,0.166666 0.499996,0.333331c0.166666,0.166666 0.215481,0.215482 0.33333,0.333331c0.117851,0.117851 0.215481,0.048815 0.333332,0.166666c0.117849,0.11785 0.166666,0.166665 0.166666,0.333331c0,0 0.048815,0.048815 0.166666,0.166666c0.117851,0.117851 0.048813,0.382146 0.166664,0.499997c0.117851,0.117851 0.166666,0.166665 0.166666,0.166665c0.166666,0 0.048815,0.382146 0.166666,0.499997c0.117849,0.117849 0.33333,0.166665 0.33333,0.333331c0,0.166665 0.048815,0.215481 0.166666,0.333331c0.117851,0.11785 0.166666,0.166665 0.166666,0.166665c0,0.166666 0.048815,0.215481 0.166666,0.333331c0.235701,0.235701 0.166664,0.333331 0.166664,0.499997c0,0 0.048817,0.048815 0.166666,0.166665c0.117851,0.11785 0.243132,0.115573 0.33333,0.333331c0.06378,0.153979 0.048817,0.215481 0.166666,0.333331c0.117851,0.11785 0.264296,-0.069034 0.499996,0.166666c0.117849,0.11785 0,0.333331 0.166666,0.499996c0.166666,0.166666 0.333332,0.333331 0.499996,0.499997c0,0 0.048817,0.048815 0.166666,0.166665c0.117851,0.11785 0.243134,0.115572 0.333332,0.333331c0.06378,0.153979 0.048815,0.215481 0.166664,0.333331c0.117851,0.11785 0.215481,0.048816 0.333332,0.166666c0.117849,0.11785 0.048817,0.382146 0.166666,0.499996c0.117849,0.117849 0.166664,0.166666 0.33333,0.333331c0.166666,0.166666 0.166666,0.333331 0.333332,0.499997c0.166666,0.166665 0.09763,0.264296 0.33333,0.499996c0.117851,0.11785 0.269552,0.179353 0.333332,0.333331c0.090199,0.21776 0.115572,0.409798 0.33333,0.499997c0.153978,0.063781 0.166666,0.166665 0.333332,0.333331c0,0 0.128372,0.004458 0.166664,0.166665c0.085623,0.362706 0.333332,0.499996 0.333332,0.499996c0.166666,0 0.166666,0.166666 0.33333,0.333332c0.166666,0.166666 0.166666,0.33333 0.333332,0.33333c0.166664,0 0.11557,0.243134 0.333332,0.333332c0.153976,0.06378 0.115421,0.197668 0.333328,0.499996c0.137817,0.191212 0.26955,0.179354 0.333332,0.333332c0.090199,0.21776 0.409798,0.282238 0.499996,0.499996c0.063782,0.15398 0.166668,0.33333 0.333332,0.499996c0.166664,0.166666 0.243134,0.282236 0.333332,0.499996c0.063782,0.153978 0.102882,0.179354 0.166664,0.333332c0.090199,0.21776 0.215485,0.215481 0.333332,0.33333c0.117851,0.117851 0.048813,0.215481 0.166664,0.333332c0.117851,0.117851 0.215485,0.048817 0.333332,0.166666c0.117847,0.117849 0.048817,0.215479 0.166668,0.33333c0.117847,0.117849 0.215481,0.048817 0.333328,0.166666c0.117851,0.117851 0.04882,0.215481 0.166668,0.33333c0.117847,0.117849 0.215477,0.048815 0.333328,0.166666c0.117851,0.117851 0.215485,0.048817 0.333332,0.166666c0.117851,0.117851 0.115574,0.243132 0.333332,0.33333c0.153976,0.06378 0.166664,0.166666 0.166664,0.166666c-0.166664,0 -0.333328,0 -0.499996,0c-0.166664,0 -0.333332,0 -0.66666,0c-0.166668,0 -0.333332,0 -0.499996,0c-0.166668,0 -0.333332,0 -0.5,0c-0.166664,0 -0.333328,0 -0.499996,0c-0.333332,0 -0.499996,0 -0.66666,0c-0.166668,0 -0.333332,0 -0.499996,0c-0.166668,0 -0.333332,0 -0.5,0c-0.166664,0 -0.333328,0 -0.333328,0c-0.166668,0 -0.333332,0 -0.499998,0c-0.166666,0 -0.33333,0 -0.33333,0c-0.166666,0 -0.333332,0 -0.499998,0c-0.166664,0 -0.33333,0 -0.499996,0c-0.33333,0 -0.382145,-0.048815 -0.499996,-0.166666c-0.117851,-0.117851 -0.499996,0 -0.666662,0c0,0 -0.179352,0.06378 -0.333332,0c-0.217756,-0.090199 -0.346016,-0.102884 -0.499996,-0.166664c-0.21776,-0.090199 -0.499996,-0.166666 -0.666662,-0.166666c-0.166666,0 -0.33333,0 -0.33333,0c-0.166666,0 -0.333332,0 -0.333332,0c-0.166666,0 -0.33333,0 -0.499996,0c-0.166666,0 -0.333332,0 -0.499996,0c-0.166666,0 -0.333332,0 -0.333332,0c-0.166664,0 -0.33333,0 -0.499996,0c-0.166666,0 -0.166666,0 -0.333332,0c-0.166664,0 -0.33333,0 -0.33333,0c-0.166666,0 -0.33333,0 -0.499996,0c0,0 -0.166666,0 -0.333332,0c-0.166666,0 -0.33333,0 -0.499996,0c-0.166666,0 -0.333332,0 -0.499996,0c-0.166666,0 -0.333332,0 -0.499998,0c-0.166664,0 -0.166664,0 -0.33333,0c-0.166666,0 -0.33333,0 -0.499996,0c-0.166666,0 -0.166666,0 -0.333332,0c-0.166666,0 -0.166666,0 -0.33333,0c-0.166666,0 -0.333332,0 -0.499996,0c-0.166666,0 -0.333332,0 -0.499998,0c0,0 -0.166666,0 -0.33333,0c-0.166666,0 -0.166666,0.166666 -0.333332,0.166666c0,0 -0.166666,0 -0.33333,0l-0.166666,0l-0.166666,0l0,0" id="svg_16" stroke-opacity="null" stroke-width="null" stroke="#000000" fill="#ffffff"/>
 </g>
</svg>