<svg width="48" height="48" xmlns="http://www.w3.org/2000/svg">
 <!-- Created with Method Draw - http://github.com/duopixel/Method-Draw/ -->
 <g>
  <title>background</title>
  <rect fill="none" id="canvas_background" height="50" width="50" y="-1" x="-1"/>
  <g display="none" overflow="visible" y="0" x="0" height="100%" width="100%" id="canvasGrid">
   <rect fill="url(#gridpattern)" stroke-width="0" y="0" x="0" height="100%" width="100%"/>
  </g>
 </g>
 <g>
  <title>Layer 1</title>
  <ellipse stroke="#000" ry="4" rx="3.875" id="svg_1" cy="32.7031" cx="15.12498" stroke-width="1.5" fill="#fff"/>
  <ellipse stroke="#000" ry="4" rx="3.875" id="svg_2" cy="32.7031" cx="15.12498" stroke-width="1.5" fill="#fff"/>
  <ellipse ry="4.06249" rx="4.12499" id="svg_3" cy="32.24411" cx="32.31247" fill-opacity="null" stroke-opacity="null" stroke-width="1.5" stroke="#000" fill="#fff"/>
  <path d="m39.68745,31.30661c-0.125,0 -0.25,0 -0.375,0c-0.125,0 -0.25,0 -0.375,0c-0.125,0 -0.25,0 -0.375,0c-0.125,0 -0.28661,0.08839 -0.375,0c-0.08839,-0.08839 0,-0.25 0,-0.375c0,-0.125 -0.03661,-0.16161 -0.125,-0.25c-0.08839,-0.08839 -0.03661,-0.16161 -0.125,-0.25c-0.08839,-0.08839 0.04784,-0.25952 0,-0.375c-0.06765,-0.16332 -0.07716,-0.25952 -0.125,-0.375c-0.06765,-0.16332 -0.07716,-0.25951 -0.125,-0.375c-0.06765,-0.16332 -0.16161,-0.16161 -0.25,-0.25c-0.08839,-0.08839 -0.03661,-0.16161 -0.125,-0.25c-0.08839,-0.08839 -0.08668,-0.30735 -0.25,-0.375c-0.11548,-0.04784 -0.16161,-0.03661 -0.25,-0.125c-0.08839,-0.08839 -0.03661,-0.16161 -0.125,-0.25c-0.08839,-0.08839 -0.16161,-0.16161 -0.25,-0.25c-0.08839,-0.08839 -0.03661,-0.16161 -0.125,-0.25c-0.08839,-0.08839 -0.07716,-0.13452 -0.125,-0.25c-0.06765,-0.16332 -0.375,-0.25 -0.5,-0.25c-0.125,0 -0.25,-0.125 -0.5,-0.125c-0.125,0 -0.5,-0.25 -0.625,-0.25c-0.25,0 -0.37834,-0.09628 -0.5,-0.125c-0.27203,-0.06422 -0.33668,-0.30735 -0.5,-0.375c-0.23097,-0.09567 -0.375,-0.125 -0.5,-0.125c-0.125,0 -0.21168,-0.05735 -0.375,-0.125c-0.11548,-0.04784 -0.25,0 -0.375,0c-0.125,0 -0.25,0 -0.375,0c-0.125,0 -0.25,0 -0.375,0c-0.125,0 -0.25,0 -0.375,0c-0.125,0 -0.375,0 -0.5,0c-0.125,0 -0.375,0 -0.5,0c-0.125,0 -0.64088,0.20983 -1,0.375c-0.66219,0.30456 -0.82139,0.70993 -1.375,1c-0.35014,0.18345 -0.42736,0.30236 -0.625,0.5c-0.19764,0.19764 -0.43235,0.08668 -0.5,0.25c-0.04784,0.11548 -0.03661,0.16161 -0.125,0.25c-0.08839,0.08839 -0.20217,0.25952 -0.25,0.375c-0.06765,0.16332 -0.20216,0.38452 -0.25,0.5c-0.06765,0.16332 -0.03661,0.28661 -0.125,0.375c-0.08839,0.08839 -0.08657,0.14825 -0.25,0.375c-0.10336,0.14341 -0.16161,0.28661 -0.25,0.375c-0.17678,0.17678 -0.21168,0.55735 -0.375,0.625c-0.11548,0.04784 -0.38451,0.07716 -0.5,0.125c-0.16332,0.06765 -0.25323,0.08496 -0.5,0.125c-0.39018,0.06332 -0.5,0.125 -0.625,0.125c-0.125,0 -0.375,0 -0.625,0c-0.25,0 -0.5,0 -0.625,0c-0.25,0 -0.375,0 -0.625,0c-0.125,0 -0.25,0 -0.375,0c-0.125,0 -0.25,0 -0.25,-0.125c0,-0.125 -0.01862,-0.49337 -0.5,-1.875c-0.26011,-0.74655 -1,-1.75 -1.125,-1.875c-0.125,-0.125 -0.125,-0.25 -0.25,-0.25c-0.125,0 -0.10659,-0.14664 -0.25,-0.25c-0.22675,-0.16343 -0.375,-0.25 -0.625,-0.25c-0.125,0 -0.46168,-0.18235 -0.625,-0.25c-0.34645,-0.14351 -0.46168,-0.05735 -0.625,-0.125c-0.23097,-0.09567 -0.375,0 -0.5,0c-0.125,0 -0.375,-0.125 -0.625,-0.125c-0.25,0 -0.62661,-0.10498 -0.75,-0.125c-0.39018,-0.06332 -0.75,-0.125 -0.875,-0.125c-0.25,0 -0.5,0 -0.75,0c-0.125,0 -0.25334,-0.02872 -0.375,0c-0.27203,0.06422 -0.3848,0.22373 -0.75,0.375c-0.25823,0.10696 -0.51903,0.15433 -0.75,0.25c-0.16332,0.06765 -0.33668,0.30735 -0.5,0.375c-0.11548,0.04784 -0.25,0.125 -0.375,0.25c-0.125,0.125 -0.07716,0.25952 -0.125,0.375c-0.06765,0.16332 -0.03884,0.26003 -0.125,0.625c-0.06422,0.27203 -0.125,0.375 -0.125,0.5c0,0.125 0.02002,-0.00161 0,-0.125c-0.06332,-0.39018 -0.125,-1.125 -0.125,-1.5c0,-0.75 -0.06229,-1.11724 -0.125,-1.875c-0.03093,-0.37372 0,-0.75 0,-1.25c0,-0.625 0,-0.875 0,-1.375c0,-0.25 -0.125,-0.875 -0.125,-1.75c0,-0.375 0.17231,-1.14506 0,-1.875c-0.06422,-0.27203 -0.125,-0.5 -0.125,-0.625c0,-0.125 0,-0.375 0,-1.125c0,-0.375 0,-0.875 0,-1.375c0,-0.125 0.125,-0.375 0.125,-0.5c0,-0.125 0.05735,-0.21168 0.125,-0.375c0.04784,-0.11548 0,-0.25 0,-0.375c0,-0.125 0.03661,-0.16161 0.125,-0.25c0.17678,-0.17678 0.5,-0.25 0.625,-0.25c0.25,0 0.5,0 0.625,0c0.375,0 0.75468,0.07636 1.375,0c0.51153,-0.06297 0.75315,-0.11017 1.375,-0.25c0.50283,-0.11307 0.875,-0.125 1.5,-0.125c0.25,0 0.75,0 1.375,0c0.125,0 0.5,0 0.75,0c0.125,0 0.375,0 0.5,0c0.125,0 0.24502,0.1355 0.5,0.25c0.61407,0.27576 1.25093,0.60973 1.375,0.625c0.51153,0.06297 0.86677,0.26804 1.125,0.375c0.3652,0.15127 0.71168,0.18235 0.875,0.25c0.23097,0.09567 0.375,0 0.75,0c0.25,0 0.375,0 0.75,0c0.25,0 0.375,0 0.625,0c0.125,0 0.375,0 0.5,0c0.125,0 0.375,0 0.5,0c0.125,0 0.03661,0.16161 0.125,0.25c0.08839,0.08839 0.10649,0.15354 0.25,0.5c0.06765,0.16332 0.30735,0.21168 0.375,0.375c0.04783,0.11548 0.03661,0.16161 0.125,0.25c0.08839,0.08839 0.05735,0.21168 0.125,0.375c0.04783,0.11548 0,0.25 0,0.375c0,0.125 0.06078,0.22797 0.125,0.5c0.02872,0.12166 0.07717,0.38451 0.125,0.5c0.06765,0.16332 0.21157,0.39825 0.375,0.625c0.10336,0.14341 0.23159,0.27164 0.375,0.375c0.22675,0.16343 0.5,0.25 0.625,0.25c0.125,0 0.22797,0.06078 0.5,0.125c0.12166,0.02872 0.5,0.125 1,0.125c0.25,0 0.875,0 1.375,0c0.125,0 0.25121,-0.02463 0.5,0c0.63427,0.06281 0.99575,0.18744 2.375,0.25c0.8741,0.03965 1.375,0 2.12499,0c0.5,0 0.625,0 0.875,0c0.125,0 0.20216,0.00951 0.25,0.125c0.06765,0.16332 0.30735,0.08668 0.375,0.25c0.04784,0.11549 0.30735,0.46168 0.375,0.625c0.04784,0.11549 0.125,0.125 0.125,0.25c0,0.125 0.18578,0.22797 0.25,0.5c0.02872,0.12166 0.125,0.375 0.125,0.5c0,0.25 0.25,0.5 0.25,0.75c0,0.125 0.18235,0.21168 0.25,0.375c0.04784,0.11549 -0.04783,0.25951 0,0.375c0.06765,0.16332 0.125,0.25 0.125,0.5c0,0.125 -0.03843,0.27325 0.125,0.5c0.10336,0.14341 0.125,0.25 0.125,0.375c0,0.25 0.05735,0.33668 0.125,0.5c0.04784,0.11549 -0.02872,0.37834 0,0.5c0.06422,0.27203 0.125,0.5 0.125,0.75c0,0.125 0,0.375 0,0.5c0,0.25 0,0.5 0,0.75c0,0.125 0,0.25 0,0.375c0,0.125 0,0.25 0,0.375l0,0.125l0,0.125" id="svg_4" stroke-opacity="null" stroke-width="1.5" stroke="#000" fill="#ffffff"/>
  <path d="m23.56248,17.43164c0,0 0,0 -0.125,0c-0.125,0 -0.25951,-0.04783 -0.375,0c-0.16332,0.06765 -0.18235,0.21168 -0.25,0.375c-0.04784,0.11548 0,0.375 0,0.5c0,0.125 0,0.375 0,0.5c0,0.25 0,0.5 0,0.625c0,0.125 0,0.25 0.125,0.25c0.25,0 0.38451,0.04784 0.5,0c0.16332,-0.06765 0.25,-0.125 0.25,-0.25c0,-0.125 0.125,-0.125 0.125,-0.25c0,-0.25 0.18235,-0.71168 0.25,-0.875c0.09567,-0.23097 0,-0.375 0,-0.5c0,-0.125 0.125,-0.375 0,-0.375c-0.125,0 0,0.25 0,0.375c0,0.125 -0.08839,0.28661 0,0.375c0.08839,0.08839 0.125,0.125 0.125,0.25c0,0.125 0.03661,0.16161 0.125,0.25c0.08839,0.08839 -0.03843,0.27325 0.125,0.5c0.10336,0.14341 0,0.375 0.125,0.375c0.125,0 0,-0.25 0,-0.5c0,-0.125 0,-0.25 0,-0.5c0,-0.125 0,-0.25 0,-0.375c0,-0.125 0,-0.25 0,-0.375c0,-0.125 0,-0.25 0,-0.375c0,-0.125 0,-0.25 -0.125,-0.25c-0.125,0 -0.125,0 -0.125,0.125c0,0.125 0,0.25 0,0.375c0,0.25 0,0.375 0,0.5c0,0.125 0,0.25 0,0.375c0,0.125 -0.04784,0.25951 0,0.375c0.06765,0.16332 0.125,0.25 0.125,0.375l0.125,0l0,0.125l0,0.125" id="svg_5" fill-opacity="null" stroke-opacity="null" stroke-width="1.5" stroke="#000" fill="none"/>
  <path d="m12.68751,16.80664c0,0.125 0,0.25 0,0.5c0,0.25 -0.02002,0.75161 0,0.875c0.06332,0.39018 0.25,0.75 0.25,0.875c0,0.25 0.125,0.375 0.125,0.5c0,0.125 0.03661,0.16161 0.125,0.25c0.17678,0.17678 0.375,0 0.625,0c0.5,0 0.625,0 1,0c0.25,0 0.375,0 0.5,0c0.125,0 0.25,0 0.375,0c0.125,0 0.25,0 0.375,0c0.125,0 0.25,0 0.375,0c0.125,0 0.25,0 0.375,0c0.125,0 0.25,0 0.375,0c0.125,0 0.25,0 0.375,0c0.125,0 0.125,-0.25 0.125,-0.5c0,-0.25 0,-0.375 0,-0.5c0,-0.125 0,-0.25 0,-0.375c0,-0.125 0,-0.25 0,-0.375c0,-0.125 0,-0.25 0,-0.375c0,-0.125 0,-0.25 0,-0.375c0,-0.125 -0.25,-0.25 -0.375,-0.25c-0.125,0 -0.25,0 -0.5,0c-0.125,0 -0.25,0 -0.375,0c-0.125,0 -0.25,0 -0.375,0c-0.125,0 -0.25,0 -0.5,0c-0.125,0 -0.16161,-0.03661 -0.25,-0.125c-0.17678,-0.17678 -0.375,0 -0.5,0c-0.125,0 -0.25,0 -0.375,0c-0.125,0 -0.25,0 -0.375,0c-0.125,0 -0.25,0 -0.375,0l-0.125,0l-0.125,0" id="svg_6" fill-opacity="null" stroke-opacity="null" stroke-width="1.5" stroke="#000" fill="none"/>
 </g>
</svg>