<?xml version="1.0" encoding="UTF-8" standalone="no"?>
<!-- Created with Inkscape (http://www.inkscape.org/) -->

<svg
   width="32"
   height="32"
   viewBox="0 0 16.933333 16.933333"
   version="1.1"
   id="svg1298"
   inkscape:version="1.1 (c68e22c387, 2021-05-23)"
   sodipodi:docname="submarine-32.svg"
   xmlns:inkscape="http://www.inkscape.org/namespaces/inkscape"
   xmlns:sodipodi="http://sodipodi.sourceforge.net/DTD/sodipodi-0.dtd"
   xmlns="http://www.w3.org/2000/svg"
   xmlns:svg="http://www.w3.org/2000/svg">
  <sodipodi:namedview
     id="namedview1300"
     pagecolor="#ffffff"
     bordercolor="#666666"
     borderopacity="1.0"
     inkscape:pageshadow="2"
     inkscape:pageopacity="0.0"
     inkscape:pagecheckerboard="0"
     inkscape:document-units="mm"
     showgrid="false"
     units="px"
     inkscape:zoom="10.732997"
     inkscape:cx="23.991436"
     inkscape:cy="23.991436"
     inkscape:window-width="1920"
     inkscape:window-height="1017"
     inkscape:window-x="-8"
     inkscape:window-y="32"
     inkscape:window-maximized="1"
     inkscape:current-layer="layer1"
     scale-x="2" />
  <defs
     id="defs1295" />
  <g
     inkscape:label="Layer 1"
     inkscape:groupmode="layer"
     id="layer1">
    <ellipse
       style="opacity:0.5;fill:none;stroke-width:0.264999"
       id="path1381"
       cx="1.5653635"
       cy="6.347734"
       rx="0.25883964"
       ry="2.0090885" />
    <circle
       id="path1587"
       style="fill:#000000;stroke:#000000;stroke-width:0.264583"
       cx="8.1596117"
       cy="7.6912351"
       r="0" />
    <path
       style="opacity:0.5;fill:#000000;fill-opacity:1;stroke:#000000;stroke-width:0;stroke-miterlimit:0;stroke-dasharray:none;stroke-opacity:1"
       id="path1817"
       d="m 13.541243,3.1844518 c -0.07347,-0.04961 -0.099,-0.062837 -0.167265,-0.1287208 -0.02905,-0.028038 -0.05375,-0.060279 -0.08161,-0.089507 -0.03293,-0.034554 -0.06792,-0.067109 -0.100704,-0.1017997 -0.03251,-0.034403 -0.05973,-0.074009 -0.09513,-0.1054283 -0.04664,-0.041393 -0.0999,-0.07466 -0.149858,-0.11199 C 12.763009,2.4915657 12.583624,2.3312352 12.400179,2.1755423 12.358936,2.1405386 12.318848,2.1041237 12.276414,2.0705725 12.234458,2.0373985 12.190246,2.0071818 12.147162,1.9754864 12.014772,1.8705787 11.882514,1.7623018 11.733245,1.6818189 11.665335,1.645203 11.595173,1.6129232 11.526368,1.5780164 11.36659,1.5066293 11.199211,1.4470719 11.025334,1.421731 c -0.18585,-0.027086 -0.265167,-0.022895 -0.461828,-0.028614 -0.09497,-0.00152 -0.189938,-0.00303 -0.284907,-0.00455 -0.268521,-0.00431 -0.2866124,0.00371 -0.5371559,-0.029152 C 9.5924404,1.3398702 9.4473415,1.3040816 9.3015651,1.2689564 9.1899035,1.2572237 9.0817908,1.225385 8.9709447,1.2096612 8.7406172,1.1769887 9.0382007,1.2243268 8.8136182,1.1876981 8.7777492,1.1830391 8.7421702,1.1746539 8.7060121,1.1737215 8.6423831,1.1720815 8.5455365,1.1861146 8.489865,1.2181056 8.0997906,1.4422581 5.9396846,2.3238719 5.0558603,3.2779409 4.9468652,3.4124385 4.8837142,3.5324231 4.8891166,3.7114008 c 0.00147,0.048809 0.011026,0.097038 0.016538,0.1455567 0.00124,0.05487 -0.00262,0.1100933 0.00373,0.1646097 0.00795,0.068334 0.032091,0.1342194 0.038998,0.2026667 0.00772,0.076529 0.00194,0.1538379 0.00473,0.2307052 0.00299,0.082398 0.011356,0.1645934 0.012606,0.2470365 0.00314,0.2071431 -0.00677,0.2622981 -0.024682,0.4630243 1.338e-4,0.065148 -0.013868,0.1318773 4.022e-4,0.1954432 0.018266,0.08137 0.070387,0.1517269 0.095393,0.2312844 0.1728025,0.549794 -0.061292,0.012644 0.1866387,0.6173762 0.062591,0.1526678 0.3311672,0.7216606 0.3913221,0.8502756 0.1171133,0.2988328 0.1995863,0.6093666 0.3055982,0.9119185 0.046757,0.133441 0.1013151,0.2640287 0.1501087,0.3967384 0.041879,0.1139013 0.077469,0.2301243 0.1218946,0.3430564 0.038624,0.098183 0.086173,0.1926346 0.1270945,0.289882 0.033948,0.080678 0.06499,0.1625481 0.097485,0.243822 0.07492,0.1609151 0.1345121,0.3281828 0.2088253,0.4893349 0.0151,0.032746 0.026236,0.06806 0.047456,0.097215 0.066128,0.090855 0.1299345,0.1036309 0.2324881,0.1551006 0.097673,0.018957 0.1952643,0.038338 0.2930181,0.056874 0.1090192,0.02067 0.2188887,0.03708 0.3272952,0.06075 0.1029812,0.02249 0.2043182,0.05195 0.306536,0.07769 0.1013166,0.02552 0.2032997,0.04847 0.304066,0.07608 0.087232,0.0239 0.1724575,0.05479 0.2597669,0.0784 0.085484,0.02312 0.1722598,0.04117 0.2583899,0.06175 0.4218885,0.124643 0.00362,0.0036 0.396866,0.110507 0.050411,0.0137 0.1000509,0.03021 0.1506323,0.04327 0.1185045,0.03061 0.2396271,0.04966 0.359179,0.07553 0.054333,0.0045 0.1089663,0.03932 0.164991,0.03399 0.00899,-8.47e-4 0.016735,-0.01114 0.025522,-0.0091 0.025371,0.006 0.065595,0.06229 0.074945,0.07337 0.014301,0.02498 0.031256,0.04861 0.042901,0.07493 0.013073,0.02955 0.019248,0.06174 0.030904,0.09187 0.01447,0.03741 0.032842,0.07323 0.04741,0.110611 0.038474,0.09871 0.071176,0.191951 0.087067,0.297638 0.0084,0.05561 0.0078,0.112206 0.01164,0.168309 0.0033,0.05441 0.0065,0.108827 0.0099,0.163228 0.0093,0.149053 0.01659,0.175028 0.0067,0.323746 -0.0083,0.124981 -0.03358,0.248167 -0.05526,0.371255 0.0097,0.03916 0.01272,0.08064 0.02921,0.117471 0.02021,0.04516 0.0549,0.08241 0.07948,0.125349 0.02627,0.04591 0.04851,0.09401 0.07293,0.140937 0.02799,0.05379 0.05941,0.105897 0.08429,0.161188 0.02666,0.05923 0.04593,0.121533 0.07009,0.181834 0.02887,0.07209 0.05932,0.143531 0.08898,0.215297 0.06973,0.328994 0.09048,0.656224 0.0376,0.989381 -0.02333,0.146956 -0.04321,0.191153 -0.08743,0.325627 -0.02011,0.03522 -0.03535,0.0737 -0.06033,0.105654 -0.05963,0.07628 -0.161017,0.126588 -0.248087,0.163123 -0.03064,0.01286 -0.1222518,0.05107 -0.093632,0.03419 1.027062,-0.605713 2.060233,-1.20101 3.090349,-1.801516 -0.280539,0.195758 -0.59113,0.292875 -0.924314,0.359992 -0.126749,0.02553 -0.253938,0.0501 -0.382308,0.06555 -0.128944,0.01552 -0.259114,0.01816 -0.388672,0.02723 -0.297671,-0.0036 -0.5937,-0.03128 -0.8839,-0.09845 -0.06524,-0.0151 -0.129829,-0.03302 -0.19398,-0.05221 -0.05037,-0.01507 -0.09756,-0.04188 -0.149426,-0.05053 -0.07556,-0.01262 -0.1529752,-0.0085 -0.2294626,-0.01273 -0.530267,0.05558 -0.6717882,0.09769 -1.2322167,0.0295 C 8.3842295,13.317176 7.7580777,13.152372 7.4674286,13.051181 7.1896651,12.954476 6.8158543,12.770589 6.5462809,12.6436 6.2874954,12.50387 6.0438004,12.340303 5.8278044,12.140549 5.744131,12.063167 5.6725937,11.975903 5.5883221,11.899446 c -0.044963,-0.02859 -0.088062,-0.05948 -0.1297231,-0.09262 0,0 -3.2178237,2.126633 -3.2178237,2.126633 v 0 c 0.075085,0.02122 0.1477812,0.04947 0.224452,0.06512 0.1726962,0.01965 0.3457853,0.03216 0.5183676,0.05349 0.3972247,0.04909 0.7934355,0.109505 1.1837321,0.199452 0.1777029,0.04594 0.3553902,0.09193 0.5331086,0.137809 0.1945523,0.05022 0.3908222,0.09419 0.5837037,0.150483 0.1962116,0.05727 0.3895665,0.124007 0.5829996,0.190057 0.1826469,0.06237 0.3693412,0.115467 0.545125,0.19515 0.3396912,0.153984 0.3929634,0.223707 0.644797,0.438384 0.06365,0.009 0.1267719,0.0233 0.1909485,0.02697 0.077555,0.0044 0.155348,-0.0024 0.2330286,-0.0027 0.093517,-4.23e-4 0.1870354,2.91e-4 0.2805529,3.97e-4 0.6034902,7.67e-4 0.040577,-0.003 0.679228,0.01038 0.1241578,0.0026 0.2483461,0.0035 0.372519,0.0052 0.1179386,0.0072 0.2358903,0.01415 0.3538157,0.02156 0.1019336,0.0064 0.203673,0.01671 0.3057593,0.01983 0.085122,0.0026 0.1703832,-0.0062 0.2554719,-0.0027 0.061927,0.0026 0.1228246,0.01853 0.184758,0.02094 0.1109972,0.0043 0.1539582,-0.01059 0.2573672,-0.03223 1.094321,-0.63687 2.194453,-1.263859 3.282963,-1.91061 0.0475,-0.02822 0.127751,-0.143155 0.15122,-0.192418 0.01668,-0.03501 0.02781,-0.07267 0.03658,-0.11045 0.02704,-0.116489 0.01901,-0.146315 0.01673,-0.265395 -0.0073,-0.04758 -0.0127,-0.09549 -0.02189,-0.142749 -0.03862,-0.198633 -0.09901,-0.392743 -0.130001,-0.593068 -0.01396,-0.09021 -0.02088,-0.181372 -0.03103,-0.272092 -0.01037,-0.0927 -0.02034,-0.185442 -0.0305,-0.278163 -0.0012,-0.09807 0.0043,-0.196457 -0.0035,-0.294224 -0.0059,-0.0732 -0.02595,-0.14457 -0.03749,-0.217094 -0.01018,-0.06399 -0.01868,-0.12823 -0.02765,-0.192397 -0.0072,-0.05174 -0.01871,-0.103128 -0.02097,-0.155323 -0.0018,-0.04237 0.0073,-0.08454 0.0088,-0.126922 8.2e-4,-0.02301 -0.0012,-0.04602 -0.0018,-0.06904 -0.02613,-0.105318 -0.05706,-0.209848 -0.07396,-0.31724 -0.02852,-0.181314 -0.01229,-0.139795 -0.03006,-0.329962 -0.0053,-0.056522 -0.01385,-0.1126898 -0.02077,-0.1690344 -0.0097,-0.056462 -0.02238,-0.1124944 -0.02915,-0.1693849 -0.0089,-0.075 -0.01811,-0.2897325 -0.02446,-0.3680854 -0.0042,-0.051376 -0.0066,-0.1031174 -0.01603,-0.1537989 -0.0079,-0.042691 -0.02349,-0.083598 -0.03568,-0.1252722 -0.01225,-0.041912 -0.02508,-0.083652 -0.03763,-0.1254789 -0.01545,-0.038492 -0.02776,-0.078398 -0.04635,-0.115475 -0.02971,-0.059054 -0.101568,-0.1670906 -0.152024,-0.2088734 -0.08623,-0.071405 -0.209213,-0.063003 -0.31216,-0.062909 -0.358852,0.011798 0.109267,-0.00233 -0.285864,0.00513 -0.113937,0.00214 -0.263525,0.010496 -0.375479,0.00982 -0.164763,-0.001 -0.326887,-0.012577 -0.491375,-0.02198 -0.0729,-0.010118 -0.501394,-0.068624 -0.565619,-0.081624 -0.09636,-0.019502 -0.191455,-0.045252 -0.285682,-0.073293 C 10.396104,8.2490243 10.267127,8.2094532 10.113986,8.0962708 10.073618,8.0664361 10.044454,8.0238554 10.009688,7.9876474 9.9673464,7.9485386 9.9254322,7.905798 9.8757725,7.8753852 9.8462921,7.8573301 9.8135301,7.8452045 9.7832954,7.8284439 9.6298474,7.7433796 9.4935563,7.6344639 9.3664541,7.513716 9.1344357,7.293811 9.1999407,7.3667674 8.9771235,7.1064648 8.9015532,7.0181813 8.8222827,6.9326796 8.7534143,6.8390745 8.4916213,6.483248 8.2937,6.0853248 8.1528673,5.6674071 8.1241158,5.5014419 8.0852525,5.3369142 8.0666131,5.1695115 8.037741,4.9102058 8.0478885,4.5982235 8.0498359,4.3351444 8.0506032,4.2320213 8.0422106,4.1284683 8.0516086,4.0257717 8.0608187,3.925165 8.0982332,3.8282801 8.105455,3.7275111 8.1098497,3.6661878 8.0925724,3.6052268 8.0861298,3.5440846 8.0512313,3.3782669 8.0310153,3.3211642 8.0311497,3.1437092 c 5.9e-5,-0.077741 0.029318,-0.4040366 0.046543,-0.4825987 0.02966,-0.1352752 0.092278,-0.2617293 0.1248215,-0.3962714 0.053222,-0.092376 0.075756,-0.1430976 0.1411269,-0.2206303 0.06338,-0.075172 0.1458118,-0.1350839 0.222373,-0.1954945 0.019637,-0.013185 0.038979,-0.02682 0.058911,-0.039555 0.022868,-0.014611 0.092956,-0.056036 0.069456,-0.042467 -3.25437,1.8791522 -3.9923524,2.613843 -2.9649589,1.6526867 0.024366,-0.00323 0.048547,-0.0085 0.073097,-0.00969 0.054985,-0.00267 0.1100465,0.00369 0.1650928,0.00427 0.121593,0.00129 0.2430976,0.00465 0.3647168,0.00308 0.2992165,-0.036319 0.6026631,-0.076491 0.9048504,-0.062531 0.1730166,0.00799 0.2977793,0.034489 0.4657337,0.063543 0.2422382,0.065638 0.4807087,0.1430295 0.7170745,0.2272239 0.2273707,0.083412 0.4488966,0.1836742 0.6667529,0.2892132 0.044378,0.026695 0.2238293,0.1340243 0.2648469,0.161262 0.1876768,0.1246267 0.3614901,0.2704266 0.5130366,0.4372423 0.027412,0.041025 0.053091,0.083261 0.082235,0.123074 0.025469,0.034794 0.056332,0.06545 0.081433,0.1005107 0.0235,0.03283 0.04348,0.068064 0.0641,0.1027761 0.05035,0.084752 0.09352,0.1653064 0.08902,0.2668955 0,0 3.359824,-1.9418009 3.359824,-1.941801 z" />
  </g>
</svg>
