<?xml version="1.0" encoding="UTF-8" standalone="no"?>
<!-- Created with Inkscape (http://www.inkscape.org/) -->

<svg
   width="48"
   height="48"
   viewBox="0 0 12.7 12.7"
   version="1.1"
   id="svg1298"
   inkscape:version="1.1 (c68e22c387, 2021-05-23)"
   sodipodi:docname="submarine-48.svg"
   xmlns:inkscape="http://www.inkscape.org/namespaces/inkscape"
   xmlns:sodipodi="http://sodipodi.sourceforge.net/DTD/sodipodi-0.dtd"
   xmlns="http://www.w3.org/2000/svg"
   xmlns:svg="http://www.w3.org/2000/svg">
  <sodipodi:namedview
     id="namedview1300"
     pagecolor="#ffffff"
     bordercolor="#666666"
     borderopacity="1.0"
     inkscape:pageshadow="2"
     inkscape:pageopacity="0.0"
     inkscape:pagecheckerboard="0"
     inkscape:document-units="mm"
     showgrid="false"
     units="px"
     inkscape:zoom="10.732997"
     inkscape:cx="23.991436"
     inkscape:cy="23.991436"
     inkscape:window-width="1920"
     inkscape:window-height="1017"
     inkscape:window-x="-8"
     inkscape:window-y="32"
     inkscape:window-maximized="1"
     inkscape:current-layer="layer1" />
  <defs
     id="defs1295" />
  <g
     inkscape:label="Layer 1"
     inkscape:groupmode="layer"
     id="layer1">
    <ellipse
       style="opacity:0.5;fill:none;stroke-width:0.264999"
       id="path1381"
       cx="1.5653635"
       cy="6.347734"
       rx="0.25883964"
       ry="2.0090885" />
    <circle
       id="path1587"
       style="fill:#000000;stroke:#000000;stroke-width:0.264583"
       cx="8.1596117"
       cy="7.6912351"
       r="0" />
    <path
       style="opacity:0.5;fill:#000000;fill-opacity:1;stroke:#000000;stroke-width:0;stroke-miterlimit:0;stroke-dasharray:none;stroke-opacity:1"
       id="path1817"
       d="m 10.681681,1.261643 c -0.07347,-0.04961 -0.099,-0.062837 -0.167265,-0.1287208 -0.02905,-0.028038 -0.05375,-0.060279 -0.08161,-0.089507 -0.03293,-0.034554 -0.06792,-0.0671086 -0.100704,-0.10179971 -0.03251,-0.034403 -0.05973,-0.0740091 -0.09513,-0.10542825 -0.04664,-0.0413927 -0.0999,-0.0746601 -0.149858,-0.11199004 C 9.9034469,0.56875693 9.7240618,0.40842641 9.5406169,0.25273354 9.4993739,0.21772978 9.4592856,0.1813149 9.4168525,0.14776376 9.3748962,0.11458973 9.3306841,0.08437303 9.2875998,0.05267766 9.15521,-0.05223009 9.0229525,-0.16050698 8.8736833,-0.24098987 8.8057727,-0.2776058 8.7356108,-0.30988553 8.6668061,-0.34479235 8.507028,-0.41617944 8.3396491,-0.47573689 8.1657718,-0.50107778 c -0.1858499,-0.0270858 -0.265167,-0.0228952 -0.4618278,-0.0286145 -0.094969,-0.001516 -0.1899378,-0.003025 -0.2849065,-0.00455 -0.2685209,-0.004311 -0.2866128,0.003711 -0.5371563,-0.0291521 -0.1490027,-0.0195442 -0.2941016,-0.0553328 -0.439878,-0.090458 -0.1116616,-0.0117327 -0.2197743,-0.0435714 -0.3306204,-0.0592952 -0.2303275,-0.0326725 0.067256,0.0146656 -0.1573265,-0.0219631 -0.035869,-0.004659 -0.071448,-0.0130442 -0.1076061,-0.0139766 -0.063629,-0.00164 -0.1604756,0.0123931 -0.2161471,0.0443841 C 5.2402287,-0.48055066 3.0801228,0.40106308 2.1962985,1.3551321 2.0873034,1.4896297 2.0241524,1.6096143 2.0295548,1.788592 c 0.00147,0.048809 0.011026,0.097038 0.016538,0.1455567 0.00124,0.05487 -0.00262,0.1100933 0.00373,0.1646097 0.00795,0.068334 0.032091,0.1342194 0.038998,0.2026667 0.00772,0.076529 0.00194,0.1538379 0.00473,0.2307052 0.00299,0.082398 0.011356,0.1645934 0.012606,0.2470365 0.00314,0.2071431 -0.00677,0.2622981 -0.024682,0.4630243 1.338e-4,0.065148 -0.013868,0.1318773 4.022e-4,0.1954432 0.018266,0.08137 0.070387,0.1517269 0.095393,0.2312844 0.1728025,0.5497939 -0.061292,0.012644 0.1866387,0.6173761 0.062591,0.1526678 0.3311672,0.7216606 0.3913221,0.8502756 0.1171133,0.2988328 0.1995863,0.6093666 0.3055982,0.9119185 0.046757,0.133441 0.1013151,0.2640287 0.1501087,0.3967384 0.041879,0.1139013 0.077469,0.2301243 0.1218946,0.3430564 0.038624,0.098183 0.086173,0.1926346 0.1270945,0.289882 0.033948,0.080678 0.06499,0.1625481 0.097485,0.243822 0.07492,0.1609151 0.1345121,0.3281828 0.2088253,0.4893349 0.0151,0.032746 0.026236,0.06806 0.047456,0.097215 0.066128,0.090855 0.1299345,0.1036309 0.2324881,0.1551006 0.097673,0.018957 0.1952643,0.038338 0.2930181,0.056874 0.1090192,0.020672 0.2188887,0.037076 0.3272951,0.060754 0.1029812,0.022492 0.2043182,0.051947 0.306536,0.07769 0.1013166,0.025516 0.2032997,0.048474 0.304066,0.076083 0.087232,0.0239 0.1724575,0.054785 0.2597669,0.0784 0.085484,0.023122 0.1722598,0.041167 0.2583899,0.06175 0.4218885,0.1246433 0.00362,0.00359 0.396866,0.1105069 0.050411,0.013705 0.1000509,0.030205 0.1506323,0.043269 0.1185045,0.030606 0.2396271,0.04966 0.359179,0.075534 0.054333,0.00454 0.1089663,0.039317 0.164991,0.033988 0.00899,-8.467e-4 0.016735,-0.011136 0.025522,-0.00906 0.025371,0.00599 0.065595,0.062291 0.074945,0.073367 0.014301,0.024977 0.031256,0.048609 0.042901,0.074928 0.013073,0.029547 0.019248,0.061737 0.030904,0.091871 0.01447,0.037413 0.032842,0.073235 0.04741,0.1106109 0.038474,0.098714 0.071176,0.191951 0.087067,0.2976377 0.00836,0.055612 0.00776,0.1122061 0.011644,0.1683092 0.00329,0.054409 0.00645,0.1088268 0.00987,0.1632286 0.00935,0.1490522 0.016587,0.1750274 0.00673,0.3237455 -0.00828,0.124981 -0.03358,0.248167 -0.055261,0.371255 0.00974,0.03916 0.012724,0.08064 0.029209,0.117471 0.020211,0.04516 0.0549,0.08241 0.079475,0.125349 0.026273,0.04591 0.048509,0.09401 0.072926,0.140937 0.027988,0.05379 0.059406,0.105897 0.084289,0.161188 0.026659,0.05923 0.045934,0.121533 0.070087,0.181834 0.028874,0.07209 0.059322,0.143531 0.088982,0.215297 0.069726,0.328994 0.090481,0.656224 0.037597,0.989381 -0.023328,0.146956 -0.043211,0.191153 -0.087434,0.325627 -0.020108,0.03522 -0.03535,0.0737 -0.060327,0.105654 -0.059632,0.07628 -0.161017,0.126588 -0.2480874,0.163123 -0.030639,0.01286 -0.1222518,0.05107 -0.093632,0.03419 1.0270624,-0.605713 2.0602326,-1.20101 3.0903489,-1.801516 -0.2805393,0.195758 -0.59113,0.292875 -0.9243137,0.359992 -0.1267492,0.02553 -0.2539386,0.0501 -0.3823078,0.06555 -0.1289447,0.01552 -0.2591149,0.01816 -0.3886724,0.02723 -0.2976708,-0.0036 -0.5936999,-0.03128 -0.8839004,-0.09845 -0.065237,-0.0151 -0.1298287,-0.03302 -0.1939801,-0.05221 -0.050374,-0.01507 -0.097564,-0.04188 -0.1494258,-0.05053 -0.075559,-0.01262 -0.1529749,-0.0085 -0.2294623,-0.01273 -0.530267,0.05558 -0.6717882,0.09769 -1.2322167,0.0295 -0.3031402,-0.0369 -0.929292,-0.201704 -1.219941,-0.302895 C 4.3301033,11.031667 3.9562925,10.84778 3.6867191,10.720791 3.4279336,10.581061 3.1842386,10.417494 2.9682426,10.21774 2.8845692,10.140358 2.8130319,10.053094 2.7287603,9.9766372 2.683797,9.9480442 2.6406988,9.917152 2.5990372,9.8840206 c 0,0 -3.2178236,2.1266334 -3.2178236,2.1266334 v 0 c 0.075085,0.02122 0.14778116,0.04947 0.22445199,0.06512 0.17269615,0.01965 0.34578528,0.03216 0.51836753,0.05349 0.39722467,0.04909 0.79343548,0.109505 1.18373208,0.199452 0.1777029,0.04594 0.3553902,0.09193 0.5331086,0.137809 0.1945523,0.05022 0.3908222,0.09419 0.5837037,0.150483 0.1962116,0.05727 0.3895665,0.124007 0.5829996,0.190057 0.1826469,0.06237 0.3693412,0.115467 0.545125,0.19515 0.3396912,0.153984 0.3929634,0.223707 0.644797,0.438384 0.06365,0.009 0.1267719,0.0233 0.1909485,0.02697 0.077555,0.0044 0.155348,-0.0024 0.2330286,-0.0027 0.093517,-4.23e-4 0.1870353,2.91e-4 0.2805528,3.97e-4 0.6034902,7.67e-4 0.040577,-0.003 0.679228,0.01038 0.1241578,0.0026 0.2483461,0.0035 0.372519,0.0052 0.1179386,0.0072 0.2358903,0.01415 0.3538157,0.02156 0.1019336,0.0064 0.203673,0.01671 0.3057593,0.01983 0.085122,0.0026 0.1703832,-0.0062 0.2554719,-0.0027 0.061927,0.0026 0.1228246,0.01853 0.184758,0.02094 0.1109972,0.0043 0.1539579,-0.01059 0.2573668,-0.03223 1.0943209,-0.63687 2.1944529,-1.263859 3.2829633,-1.91061 0.0475,-0.02822 0.127751,-0.143155 0.15122,-0.192418 0.01668,-0.03501 0.02781,-0.07267 0.03658,-0.11045 0.02704,-0.116489 0.01901,-0.146315 0.01673,-0.265395 -0.0073,-0.04758 -0.0127,-0.09549 -0.02189,-0.142749 -0.03862,-0.198633 -0.09901,-0.392743 -0.130001,-0.593068 -0.01396,-0.09021 -0.02088,-0.181372 -0.03103,-0.272092 -0.01037,-0.092699 -0.02034,-0.185442 -0.0305,-0.2781629 -0.0012,-0.098075 0.0043,-0.1964568 -0.0035,-0.2942243 -0.0059,-0.0732 -0.02595,-0.1445702 -0.03749,-0.2170941 -0.01018,-0.063987 -0.01868,-0.12823 -0.02765,-0.192397 -0.0072,-0.051741 -0.01871,-0.1031277 -0.02097,-0.1553226 -0.0018,-0.042369 0.0073,-0.084541 0.0088,-0.1269225 8.2e-4,-0.023006 -0.0012,-0.046024 -0.0018,-0.069036 C 10.47628,8.5829872 10.44535,8.478457 10.42845,8.3710655 10.39993,8.189751 10.41616,8.2312697 10.39839,8.0411031 10.39309,7.9845811 10.38454,7.9284133 10.37762,7.8720687 10.36792,7.8156067 10.35524,7.7595743 10.34847,7.7026838 10.33957,7.6276838 10.33036,7.4129513 10.32401,7.3345984 10.31981,7.2832224 10.31741,7.231481 10.30798,7.1807995 10.30008,7.1381085 10.28449,7.0972015 10.2723,7.0555273 10.26005,7.0136153 10.24722,6.9718753 10.23467,6.9300484 10.21922,6.8915564 10.20691,6.8516504 10.18832,6.8145734 10.158606,6.7555198 10.086752,6.6474828 10.036296,6.6057 9.9500672,6.5342948 9.8270833,6.5426966 9.7241361,6.5427906 c -0.3588523,0.011798 0.1092666,-0.00233 -0.285864,0.00513 -0.113937,0.00214 -0.2635248,0.010496 -0.3754792,0.00982 -0.1647624,-0.001 -0.3268867,-0.012577 -0.4913747,-0.02198 C 8.4985186,6.5256429 8.0700243,6.4671361 8.0057994,6.4541364 7.9094418,6.4346339 7.8143445,6.4088842 7.7201166,6.3808436 7.5365418,6.3262154 7.4075654,6.2866443 7.2544237,6.1734619 7.214056,6.1436272 7.1848923,6.1010465 7.1501266,6.0648385 7.1077845,6.0257297 7.0658703,5.9829891 7.0162106,5.9525763 6.9867302,5.9345212 6.9539682,5.9223956 6.9237335,5.905635 6.7702855,5.8205707 6.6339944,5.711655 6.5068922,5.5909071 6.2748738,5.3710021 6.3403788,5.4439585 6.1175616,5.1836559 6.0419913,5.0953724 5.9627208,5.0098707 5.8938524,4.9162656 5.6320594,4.5604391 5.4341381,4.1625159 5.2933054,3.7445983 5.2645539,3.5786331 5.2256906,3.4141054 5.2070512,3.2467027 5.1781791,2.987397 5.1883266,2.6754147 5.190274,2.4123356 5.1910413,2.3092125 5.1826487,2.2056595 5.1920467,2.1029629 5.2012568,2.0023562 5.2386713,1.9054713 5.2458931,1.8047023 5.2502878,1.743379 5.2330105,1.682418 5.2265679,1.6212758 5.1916694,1.4554581 5.1714534,1.3983554 5.1715878,1.2209004 5.1716468,1.1431596 5.2009057,0.81686383 5.2181306,0.73830171 5.2477902,0.60302655 5.3104088,0.47657239 5.3429521,0.34203028 5.3961738,0.24965437 5.4187083,0.19893268 5.484079,0.1214 c 0.06338,-0.07517171 0.1458118,-0.13508391 0.222373,-0.19549451 0.019637,-0.013185 0.038979,-0.02681956 0.058911,-0.03955505 0.022868,-0.0146112 0.092956,-0.0560362 0.069456,-0.0424666 C 2.5804491,1.723036 1.8424667,2.4577268 2.8698602,1.4965705 c 0.024366,-0.00323 0.048547,-0.0085 0.073097,-0.00969 0.054985,-0.00267 0.1100465,0.00369 0.1650928,0.00427 0.121593,0.00129 0.2430976,0.00465 0.3647168,0.00308 0.2992165,-0.036319 0.6026631,-0.076491 0.9048504,-0.062531 0.1730166,0.00799 0.2977792,0.034489 0.4657336,0.063543 0.2422382,0.065638 0.4807087,0.1430295 0.7170745,0.2272239 0.2273707,0.083412 0.4488966,0.1836742 0.6667529,0.2892132 0.044378,0.026695 0.2238293,0.1340243 0.2648469,0.161262 0.1876768,0.1246267 0.3614901,0.2704266 0.5130366,0.4372423 0.027412,0.041025 0.053091,0.083261 0.082235,0.123074 0.025469,0.034794 0.056332,0.06545 0.081433,0.1005107 0.023503,0.03283 0.043482,0.068064 0.064105,0.1027761 0.050352,0.084752 0.093525,0.1653064 0.089025,0.2668955 0,0 3.3598243,-1.9418009 3.3598243,-1.941801 z" />
  </g>
</svg>
