<?xml version="1.0" encoding="UTF-8" standalone="no"?>
<svg
   xmlns:dc="http://purl.org/dc/elements/1.1/"
   xmlns:cc="http://creativecommons.org/ns#"
   xmlns:rdf="http://www.w3.org/1999/02/22-rdf-syntax-ns#"
   xmlns:svg="http://www.w3.org/2000/svg"
   xmlns="http://www.w3.org/2000/svg"
   xmlns:sodipodi="http://sodipodi.sourceforge.net/DTD/sodipodi-0.dtd"
   xmlns:inkscape="http://www.inkscape.org/namespaces/inkscape"
   sodipodi:docname="autogyro-32.svg"
   inkscape:version="1.0 (4035a4fb49, 2020-05-01)"
   id="svg8"
   version="1.1"
   viewBox="0 0 14.86656 14.86656"
   height="32"
   width="32">
  <defs
     id="defs2" />
  <sodipodi:namedview
     scale-x="0.46458"
     inkscape:showpageshadow="true"
     inkscape:pagecheckerboard="true"
     units="px"
     inkscape:window-maximized="1"
     inkscape:window-y="1072"
     inkscape:window-x="-8"
     inkscape:window-height="1017"
     inkscape:window-width="1920"
     showgrid="false"
     inkscape:document-rotation="0"
     inkscape:current-layer="layer1"
     inkscape:document-units="px"
     inkscape:cy="28.042807"
     inkscape:cx="13.135078"
     inkscape:zoom="11.2"
     inkscape:pageshadow="2"
     inkscape:pageopacity="0.0"
     borderopacity="1.0"
     bordercolor="#666666"
     pagecolor="#ffffff"
     id="base" />
  <metadata
     id="metadata5">
    <rdf:RDF>
      <cc:Work
         rdf:about="">
        <dc:format>image/svg+xml</dc:format>
        <dc:type
           rdf:resource="http://purl.org/dc/dcmitype/StillImage" />
        <dc:title></dc:title>
      </cc:Work>
    </rdf:RDF>
  </metadata>
  <g
     id="layer1"
     inkscape:groupmode="layer"
     inkscape:label="Layer 1">
    <ellipse
       style="mix-blend-mode:normal;fill:none;fill-opacity:1;stroke:#000000;stroke-width:0.264583;stroke-miterlimit:4;stroke-dasharray:none;stroke-opacity:1"
       ry="0.74414062"
       rx="5.7168894"
       cy="3.4820426"
       cx="7.3796434"
       id="path10" />
    <ellipse
       style="fill:none;stroke:#000000;stroke-width:0.264583;stroke-miterlimit:4;stroke-dasharray:none;stroke-opacity:1"
       ry="2.5749629"
       rx="0.76776409"
       cy="8.8563919"
       cx="12.399639"
       id="path12" />
    <path
       d="m 11.328839,7.3358356 c -0.197325,-2.442e-4 -0.393198,0.028131 -0.58879,0.051059 -0.399114,0.043941 -0.7987994,0.082594 -1.1984144,0.1216816 -0.3433302,0.032615 -0.685084,0.078186 -1.0287799,0.1069827 -0.3791659,0.024318 -0.7589467,0.039334 -1.1387563,0.049098 -0.2856767,0.00545 -0.5714225,0.00719 -0.8571463,0.00805 -0.2748396,9.261e-4 -0.5496798,-1.502e-4 -0.8245197,-2.645e-4 -0.3974833,0.0014 -0.7949448,0.00515 -1.1924363,0.00548 -0.3350191,-3.44e-4 -0.6703112,-0.00641 -1.0050896,0.00929 -0.1307655,0.00957 -0.2619384,0.014499 -0.3921956,0.029888 0,0 -0.277583,0.2072212 -0.277583,0.2072212 v 0 c 0.1324096,-0.018833 0.2659649,-0.026067 0.3991353,-0.038009 0.3403997,-0.024426 0.681935,-0.024831 1.0230455,-0.024802 0.3923064,3.704e-4 0.7845808,0.00408 1.176878,0.0058 0.2751061,1.21e-4 0.5502114,-4.497e-4 0.8253174,-1.963e-4 0.2880082,-5.027e-4 0.5760046,-0.00209 0.8638826,-0.011949 0.38013,-0.011065 0.7602122,-0.025508 1.1398615,-0.047757 C 8.5970314,7.7802903 8.93894,7.7374473 9.2818267,7.701268 9.6807052,7.661526 10.078995,7.615657 10.478424,7.5814189 c 0.188076,-0.019603 0.376957,-0.046269 0.56648,-0.039297 0,0 0.283935,-0.20629 0.283935,-0.20629 z"
       id="path2809"
       style="fill:none;fill-opacity:1;stroke:#000000;stroke-width:0.15875;stroke-miterlimit:4;stroke-dasharray:none;stroke-opacity:1" />
    <path
       d="M 11.112341,10.445578 C 10.781822,10.370246 10.452893,10.287572 10.121914,10.214287 9.9019106,10.165575 9.3724455,10.057218 9.1548222,10.012331 8.4060144,9.8499882 7.6490825,9.7303798 6.8957706,9.5919919 6.4983016,9.5169294 6.1034891,9.4292258 5.7061415,9.3535367 5.3466207,9.2933136 4.9870704,9.2332225 4.6275602,9.1728316 4.4061923,9.1358513 4.1850357,9.0977743 3.9647793,9.0546298 3.8228571,9.0280122 3.6861121,8.9809359 3.5444691,8.9537204 3.4157199,8.929045 3.2873493,8.9027489 3.1573072,8.8858402 3.0828337,8.8780059 3.0083033,8.873177 2.9341348,8.8626783 2.8821668,8.8546085 2.8297372,8.8508646 2.7772303,8.8489252 c -0.039455,-0.00116 -0.078931,-0.00114 -0.1183987,-0.00119 0,0 -0.2834088,0.2059183 -0.2834088,0.2059183 v 0 c 0.039302,-4.94e-5 0.078607,-1.566e-4 0.1179067,3.44e-4 0.052013,9.525e-4 0.1040689,0.0029 0.1556773,0.00994 0.075498,0.010112 0.1506474,0.018288 0.2268472,0.0214 0.1306358,0.013777 0.259434,0.03828 0.3881207,0.064361 0.1428637,0.025956 0.2806553,0.073343 0.4239517,0.09814 0.2227002,0.042201 0.4459971,0.0806 0.670157,0.114299 0.3620103,0.055574 0.7241251,0.1113861 1.0847742,0.1751687 0.4006016,0.077421 0.7991855,0.1651182 1.2020391,0.2304354 0.8458358,0.1393441 -0.3452641,-0.055611 0.6037905,0.09506 0.563808,0.089509 1.126128,0.1894384 1.6856009,0.3029384 0.1626653,0.03427 0.3257663,0.06653 0.4879964,0.102801 0.4728586,0.105724 0.9414765,0.229964 1.4046255,0.372197 0,0 0.285431,-0.195154 0.285431,-0.195154 z"
       id="path2811"
       style="fill:none;fill-opacity:1;stroke:#000000;stroke-width:0.185208;stroke-miterlimit:4;stroke-dasharray:none;stroke-opacity:1" />
    <path
       d="m 7.6888872,4.6110925 c -0.032121,0.1468178 -0.04315,0.2971313 -0.058032,0.4464023 -0.029196,0.2515031 -0.046497,0.5039709 -0.064791,0.7564056 -0.014655,0.2229615 -0.04214,0.4446651 -0.058504,0.6675046 -0.013825,0.1700226 -0.018071,0.3404839 -0.020347,0.5109705 -0.00167,0.097798 -0.00243,0.1956065 -0.00319,0.2934144 -6.614e-4,0.061247 9.08e-5,0.1224934 -7.9e-6,0.1837418 -1.233e-4,0.039515 -5.72e-5,0.019995 -1.974e-4,0.05856 0,0 0.3113715,-0.1586601 0.3113715,-0.1586601 v 0 c -1.569e-4,-0.038426 -7.99e-5,-0.018976 -2.305e-4,-0.058355 -1.635e-4,-0.061181 5.027e-4,-0.122364 -5.292e-4,-0.1835407 -0.00122,-0.096666 -0.00241,-0.1933347 -0.00257,-0.2900092 0.00106,-0.1687923 0.00475,-0.3376285 0.015497,-0.5061143 0.016412,-0.22273 0.045204,-0.4442648 0.057781,-0.6672866 0.016886,-0.2523305 0.030294,-0.5051232 0.066581,-0.7556831 0.019026,-0.1504301 0.031319,-0.3028037 0.072317,-0.4493418 0,0 -0.3151497,0.1519907 -0.3151497,0.1519907 z"
       id="path2813"
       style="fill:none;fill-opacity:1;stroke:#000000;stroke-width:0.264583;stroke-miterlimit:4;stroke-dasharray:none;stroke-opacity:1" />
    <path
       d="M 4.7001092,7.402785 C 4.686716,7.3942416 4.6738493,7.3848118 4.6599304,7.3771522 4.5993135,7.3437914 4.5363509,7.3148825 4.4746776,7.2835182 4.3491973,7.2197063 4.2246135,7.1542624 4.1002187,7.0883669 3.8884358,6.9751532 3.683412,6.8508507 3.4973759,6.6986944 3.3520992,6.5724143 3.2289473,6.4234999 3.1183455,6.2665967 3.05628,6.1686882 2.9899813,6.0721703 2.9482683,5.9635382 2.907955,5.8543629 2.8881925,5.7399682 2.8633634,5.6268496 2.8467325,5.5583807 2.8389087,5.4885595 2.8354716,5.4183391 c -0.0019,-0.052325 -0.00148,-0.1046961 -0.00126,-0.1570445 -0.027324,-0.16999 -0.3338953,0.1508088 -0.3357443,0.1521735 -0.014049,0.010372 -0.00894,0.033763 -0.013725,0.050557 -0.014957,0.052534 -0.030864,0.1047928 -0.046267,0.1571975 -0.066494,0.2115894 -0.1231859,0.4256018 -0.1699089,0.6423371 -0.036381,0.16778 -0.050391,0.3385886 -0.068079,0.508935 -0.015742,0.1922915 -0.04803,0.3823611 -0.077898,0.5728076 -0.027255,0.1605349 -0.064587,0.3190743 -0.099153,0.478137 -0.02956,0.1324287 -0.056718,0.2649072 -0.089992,0.3965398 -0.035109,0.1381358 -0.061682,0.2780411 -0.089924,0.4176728 -0.015197,0.082809 -0.02578,0.1668894 -0.046956,0.2484647 -0.019656,0.081246 -0.033809,0.1636291 -0.044365,0.2465099 -0.00685,0.086039 0.050027,0.1105424 0.1230057,0.126561 0.072147,0.00442 0.1443425,0.00772 0.2165028,0.011943 0,0 0.2770047,-0.1987259 0.2770047,-0.1987259 v 0 c -0.069283,-0.00428 -0.1384695,-0.00978 -0.207794,-0.013308 -0.024462,-0.00311 -0.077319,-0.00478 -0.092811,-0.029767 -0.00821,-0.013248 -0.00459,-0.037742 -0.00416,-0.05063 0.010363,-0.082214 0.025842,-0.1634157 0.046703,-0.2436445 0.017144,-0.082092 0.029215,-0.1650759 0.042622,-0.2478265 0.025779,-0.138889 0.052152,-0.2776262 0.087825,-0.4144068 0.034315,-0.1321207 0.062242,-0.2653331 0.091069,-0.3987133 0.03224,-0.1586494 0.068425,-0.3166171 0.092221,-0.476836 0.028794,-0.191829 0.065949,-0.3826592 0.080968,-0.5762961 0.016376,-0.1691132 0.032617,-0.3381936 0.067825,-0.504748 0.044433,-0.2163435 0.098973,-0.4300453 0.1707937,-0.6391363 0.017752,-0.053228 0.033936,-0.1070154 0.053556,-0.1595839 0.00609,-0.016317 0.036581,-0.054279 0.020278,-0.048153 -0.3225574,0.1212022 -0.299939,0.1167469 -0.2956481,0.1508704 3.61e-5,0.052819 1.362e-4,0.1056738 0.00327,0.1584196 0.00502,0.071695 0.014553,0.1427657 0.032705,0.2124638 0.027086,0.1139553 0.051129,0.2287143 0.089218,0.3397668 0.00715,0.019063 0.012974,0.03868 0.021465,0.057186 0.04109,0.089564 0.1044478,0.168588 0.1552935,0.252372 0.1154901,0.1571839 0.2445032,0.3048058 0.3882567,0.4368567 0.1882612,0.1539312 0.3973145,0.2773574 0.6112491,0.3923033 0.1243847,0.0646 0.2481322,0.1301474 0.3711719,0.1972786 0.042061,0.02295 0.12846,0.069361 0.1732018,0.097108 0.012105,0.00751 0.023257,0.016452 0.034887,0.024678 0,0 0.2972366,-0.1858743 0.2972366,-0.1858743 z"
       id="path2815"
       style="fill:none;fill-opacity:1;stroke:#000000;stroke-width:0.264583;stroke-miterlimit:4;stroke-dasharray:none;stroke-opacity:1" />
    <path
       d="m 5.3018217,8.7061415 c -0.2005534,0.00543 -0.3996132,0.034604 -0.5990831,0.054357 -0.3610507,0.031503 -0.7212397,0.073185 -1.079213,0.1298676 -0.1808443,0.026548 -0.359689,0.06378 -0.5370538,0.1075446 -0.1649432,0.046252 -0.3269645,0.102825 -0.4910275,0.1523648 -0.1305207,0.04172 -0.2664394,0.056801 -0.4023759,0.067433 -0.1676157,0.00677 -0.3369626,0.02163 -0.5042027,0.00238 -0.041257,-0.011011 -0.061592,-0.010997 -0.027856,-0.04518 0.039464,-0.039987 -1.057e-4,-0.00109 0.044203,-0.04413 0.082718,-0.081293 0.1807049,-0.1433574 0.2800082,-0.2020184 -0.067997,0.039673 -0.1375789,0.076745 -0.2039898,0.1190188 -0.036364,0.023148 0.075674,-0.041307 0.113726,-0.061562 0.04107,-0.02186 0.082164,-0.043685 0.1236315,-0.064781 0.1074709,-0.054674 0.2167891,-0.102148 0.3283309,-0.1476923 0.1313184,-0.048557 0.2628744,-0.097518 0.3995325,-0.1288801 0.05507,-0.01279 0.110651,-0.023225 0.1653021,-0.03774 0,0 0.2771902,-0.2129332 0.2771902,-0.2129332 v 0 c -0.055252,0.015573 -0.1108481,0.028416 -0.1668301,0.041295 -0.1414054,0.028693 -0.275834,0.082177 -0.4113702,0.1305179 -0.069213,0.028165 -0.146752,0.058891 -0.2143525,0.090014 -0.2510534,0.1155859 -0.4894777,0.2580802 -0.7287388,0.3952304 -0.101447,0.061565 -0.2013498,0.1276715 -0.2839737,0.2138145 -0.032251,0.037147 -0.082381,0.1048036 -0.015998,0.1423157 0.012156,0.00687 0.026742,0.00804 0.040113,0.012065 0.1693123,0.01928 0.3406373,0.00249 0.510537,0.00106 0.1371046,-0.00997 0.2754423,-0.018973 0.4071517,-0.061615 C 2.4883112,9.308869 2.6494832,9.2531723 2.8133436,9.206812 2.9944816,9.1605446 3.176031,9.1159814 3.3611015,9.0877098 3.7181392,9.0257465 4.0781164,8.9811116 4.4396354,8.9553428 c 0.1925928,-0.016055 0.3852637,-0.04254 0.5786442,-0.04319 0,0 0.2835421,-0.2060054 0.2835421,-0.2060054 z"
       id="path2823"
       style="fill:none;fill-opacity:1;stroke:#000000;stroke-width:0.132292;stroke-miterlimit:4;stroke-dasharray:none;stroke-opacity:1" />
  </g>
</svg>
