<svg width="32" height="32" xmlns="http://www.w3.org/2000/svg">
 <desc/>

 <g>
  <title>background</title>
  <rect fill="none" id="canvas_background" height="34" width="34" y="-1" x="-1"/>
 </g>
 <g>
  <title>Layer 1</title>
  <g stroke="null" id="Layer1">
   <g stroke="null" id="Shape1">
    <desc transform="translate(1.9999998807907104,4.666666507720947) translate(3.2313899993896484,-4.95782995223999) scale(0.5590864419937134) translate(-3.2313899993896484,4.95782995223999) " stroke="null"/>
    <path stroke="#323232" stroke-miterlimit="2" stroke-linecap="round" fill-rule="evenodd" fill="#040404" d="m25.519357,12.823791c1.135505,-1.287185 1.268344,-3.577035 1.118173,-6.149951c-10.498581,-6.965004 -14.144048,8.717052 -6.709037,12.299902c-0.432342,2.109657 0.969735,2.384783 0.559086,4.472692c4.182134,-5.923018 -3.109751,-8.977363 -0.559086,-15.65442c3.851994,-0.244013 3.519337,2.801135 5.590864,5.031778z" id="shapePath1"/>
   </g>
   <g stroke="null" id="Shape2">
    <desc transform="translate(1.9999998807907104,4.666666507720947) translate(3.2313899993896484,-4.95782995223999) scale(0.5590864419937134) translate(-3.2313899993896484,4.95782995223999) " stroke="null"/>
    <path stroke="#323232" stroke-miterlimit="2" stroke-linecap="round" fill-rule="evenodd" fill="#040404" d="m20.487579,24.00552c1.895638,-0.218323 3.507429,-0.15291 2.795432,2.236346c-2.014892,-0.221398 -5.486427,1.013736 -4.472692,-2.236346l1.677259,0z" id="shapePath2"/>
   </g>
   <g stroke="null" id="Shape3">
    <desc transform="translate(1.9999998807907104,4.666666507720947) translate(3.2313899993896484,-4.95782995223999) scale(0.5590864419937134) translate(-3.2313899993896484,4.95782995223999) " stroke="null"/>
    <path stroke="#323232" stroke-miterlimit="2" stroke-linecap="round" fill-rule="evenodd" fill="#040404" d="m6.499739,12.823791c-1.135505,-1.287185 -1.268349,-3.577035 -1.118173,-6.149951c10.498581,-6.965004 14.144048,8.717052 6.709037,12.299902c0.432397,2.109657 -0.969735,2.384783 -0.559086,4.472692c-4.182145,-5.923018 3.109751,-8.977363 0.559086,-15.65442c-3.85196,-0.244013 -3.519309,2.801135 -5.590864,5.031778z" id="shapePath3"/>
   </g>
   <g stroke="null" id="Shape4">
    <desc transform="translate(1.9999998807907104,4.666666507720947) translate(3.2313899993896484,-4.95782995223999) scale(0.5590864419937134) translate(-3.2313899993896484,4.95782995223999) " stroke="null"/>
    <path stroke="#323232" stroke-miterlimit="2" stroke-linecap="round" fill-rule="evenodd" fill="#040404" d="m11.531517,24.00552c-1.895638,-0.218323 -3.507395,-0.15291 -2.795432,2.236346c2.014948,-0.221398 5.486483,1.013736 4.472692,-2.236346l-1.677259,0z" id="shapePath4"/>
   </g>
  </g>
 </g>
</svg>