<?xml version="1.0" encoding="UTF-8" standalone="no"?>
<svg 
  xmlns="http://www.w3.org/2000/svg" 
  xmlns:xlink="http://www.w3.org/1999/xlink" 
  version="1.1" 
  width="48" 
  height="48" 
  viewBox="936 405.5 48 48"
>

<g fill-opacity="0" fill="#000000" fill-rule="nonzero" stroke="#000000" stroke-width="1" stroke-linecap="round" stroke-linejoin="round" stroke-miterlimit="10" font-family="none" font-weight="none" font-size="none"><g id="stage"><g id="layer1-1"><path d="M959.197,419.94924c-2.40252,1.09784 -4.98472,1.86649 -7.20755,3.29351c-1.55341,0.99726 -2.01351,6.03702 -2.07587,7.65957c-0.28713,7.47128 6.24325,11.94591 13.51912,9.62911c12.02065,-3.82765 4.54766,-22.78122 -6.94806,-20.90395" id="Path-1"/><path d="M955.95756,420.65347c0.87686,-2.50802 1.84374,-4.98636 2.63057,-7.52407c0.16274,-0.52487 0.15943,-3.55965 1.55109,-3.54714c1.94584,0.01749 1.89409,8.27193 2.00602,9.55388" id="Path-1-1"/><path d="M970.18291,413.47037c-2.65078,0.09485 -5.30156,0.1897 -7.95234,0.28455" id="Path-1-2"/><path d="M958.07024,413.18868c-2.6053,0.02357 -5.21061,0.04715 -7.81591,0.07072" id="Path-1-3"/><path d="M936.94348,431.49854c2.65229,-0.19325 5.30954,-0.32753 7.95688,-0.57975c1.30792,-0.12461 2.38503,-1.4617 3.69569,-1.37025c1.29438,0.09031 2.24283,1.4951 3.53287,1.63435c1.28113,0.13829 2.48346,-0.70082 3.7495,-0.94073c4.16093,-0.78849 9.57187,1.08964 13.84946,1.11101c4.30648,0.02152 9.25272,-1.84597 13.49352,-0.99347" id="Path-1-4"/></g></g></g></svg>