<svg width="48" height="48" xmlns="http://www.w3.org/2000/svg">
 <!-- Created with Method Draw - http://github.com/duopixel/Method-Draw/ -->
 <g>
  <title>background</title>
  <rect fill="none" id="canvas_background" height="50" width="50" y="-1" x="-1"/>
  <g display="none" overflow="visible" y="0" x="0" height="100%" width="100%" id="canvasGrid">
   <rect fill="url(#gridpattern)" stroke-width="0" y="0" x="0" height="100%" width="100%"/>
  </g>
 </g>
 <g>
  <title>Layer 1</title>
  <path stroke="#000" id="svg_17" d="m24.13547,7.769761c-9.526967,0 -17.249982,7.442436 -17.249982,16.624401c0,3.137135 0.91303,6.068944 2.483978,8.57189l-2.483978,6.999128l6.91598,-2.280694c2.881967,2.083772 6.452762,3.335246 10.334002,3.335246c9.52699,0 17.249989,-7.443652 17.249989,-16.62557s-7.722999,-16.624401 -17.249989,-16.624401zm1.210085,26.024969l-2.426278,0l0,-2.990959l2.426278,0l0,2.990959zm0,-6.184906l0,0.989342l-2.426278,0l0,-1.217656c0,-3.674706 3.254242,-4.256946 3.254242,-6.866215c0,-1.191103 -0.827965,-2.104339 -1.913483,-2.104339c-1.123836,0 -2.110657,1.064261 -2.110657,1.064261l-1.380237,-2.205809c0,0 1.360492,-1.825268 3.707579,-1.825268c2.230269,0 4.300265,1.774532 4.300265,4.764318c0.001183,4.184493 -3.431433,4.665262 -3.431433,7.401364l0.000001,0z" fill-opacity="null" stroke-opacity="null" stroke-width="1.5" fill="#fff"/>
 </g>
</svg>