<svg width="48" height="48" xmlns="http://www.w3.org/2000/svg">
 <desc/>

 <g>
  <title>background</title>
  <rect fill="none" id="canvas_background" height="50" width="50" y="-1" x="-1"/>
 </g>
 <g>
  <title>Layer 1</title>
  <path d="m5.833494,19.416708c0.166665,0 0.333331,0 0.833326,0c0.166665,0 0.499996,-0.166666 0.833326,-0.33333c0.333331,-0.166666 0.470621,-0.414373 0.833326,-0.499996c0.162207,-0.038292 0.448754,-0.197666 0.666661,-0.499996c0.275633,-0.38242 0.903134,-0.403139 1.166656,-0.66666c0.263521,-0.263521 0.499996,-0.499996 0.666661,-0.66666c0.166666,-0.166666 0.499994,-0.33333 0.66666,-0.499996c0.166665,-0.166664 0.502149,-0.306633 0.666661,-0.33333c0.520236,-0.084423 0.671119,-0.295038 0.833325,-0.33333c0.362706,-0.085623 0.666661,-0.33333 0.999991,-0.33333c0.166665,0 0.499995,0 0.66666,0c0.166666,0 0.333331,0 0.499996,0c0.166665,0 0.33333,0 0.499995,0c0.166665,0 0.333331,0 0.499995,0c0.33333,0 0.475451,0.195515 0.66666,0.33333c0.30233,0.217908 0.666662,0.333331 0.999992,0.499996c0.33333,0.166664 0.720604,0.253357 0.99999,0.499994c0.450497,0.39769 0.499996,0.666662 0.833326,0.833326c0.33333,0.166666 0.66666,0.33333 0.99999,0.499996c0.33333,0.166664 0.448904,0.409796 0.66666,0.499994c0.307959,0.127562 0.530996,0.115425 0.833326,0.33333c0.191212,0.137817 0.364332,0.282089 0.666662,0.499996c0.19121,0.137815 0.499994,0.499996 0.833324,0.66666c0.33333,0.166666 0.718328,0.222914 1.166656,0.499996c0.2005,0.123915 0.504301,0.113274 0.833326,0.166666c0.520237,0.084423 0.833326,0.166664 1.499987,0.166664c0.33333,0 1.166656,0 1.499987,0c0.499996,0 1.155682,-0.024048 1.499987,-0.166664c0.486923,-0.201691 0.950899,-0.391029 1.333321,-0.666662c0.30233,-0.217907 0.697662,-0.448751 0.999992,-0.66666c0.38242,-0.275633 0.619015,-0.701939 0.999992,-1.166656c0.149429,-0.182276 0.66666,-0.66666 0.833324,-1.166656c0.166664,-0.499994 0.391026,-0.784235 0.66666,-1.166656c0.217907,-0.302329 0.403141,-0.569806 0.66666,-0.833326c0.263519,-0.263521 0.489021,-0.524044 0.833324,-0.66666c0.486923,-0.201691 0.782234,-0.243132 0.999992,-0.33333c0.307957,-0.127562 0.499996,-0.166665 0.833328,-0.166665c0.333328,0 0.66666,0 0.833324,0c0.166664,0 0.333332,0 0.499996,0c0.166664,0 0.499996,0 0.66666,0c0.166664,0 0.333328,0.166665 0.499996,0.166665l0.166664,0" id="svg_9" fill-opacity="null" stroke-opacity="null" stroke-width="2" stroke="#000" fill="none"/>
  <path d="m5.833494,25.91665c0.166665,0 0.33333,0 0.833326,0c0.166665,0 0.499996,-0.166666 0.833325,-0.33333c0.333332,-0.166666 0.470622,-0.414374 0.833326,-0.499996c0.162207,-0.038292 0.448755,-0.197667 0.666662,-0.499997c0.275632,-0.382419 0.903134,-0.403139 1.166655,-0.66666c0.263521,-0.263521 0.499996,-0.499996 0.666661,-0.66666c0.166666,-0.166666 0.499995,-0.33333 0.666661,-0.499996c0.166665,-0.166664 0.502148,-0.306633 0.666661,-0.33333c0.520236,-0.084424 0.671119,-0.295039 0.833325,-0.333331c0.362707,-0.085622 0.666662,-0.33333 0.999992,-0.33333c0.166665,0 0.499995,0 0.66666,0c0.166666,0 0.333331,0 0.499996,0c0.166665,0 0.33333,0 0.499995,0c0.166666,0 0.333332,0 0.499996,0c0.33333,0 0.47545,0.195515 0.66666,0.33333c0.30233,0.217908 0.666662,0.333331 0.999992,0.499997c0.333331,0.166664 0.720604,0.253356 0.999991,0.499994c0.450497,0.39769 0.499996,0.666662 0.833326,0.833326c0.33333,0.166666 0.66666,0.33333 0.999991,0.499996c0.33333,0.166664 0.448904,0.409796 0.66666,0.499995c0.307959,0.127561 0.530996,0.115425 0.833326,0.33333c0.191212,0.137817 0.364332,0.282089 0.666663,0.499996c0.191209,0.137815 0.499994,0.499996 0.833324,0.66666c0.33333,0.166666 0.718328,0.222914 1.166656,0.499996c0.200501,0.123915 0.504302,0.113274 0.833327,0.166666c0.520237,0.084424 0.833326,0.166665 1.499986,0.166665c0.333331,0 1.166657,0 1.499987,0c0.499996,0 1.155682,-0.024048 1.499987,-0.166665c0.486923,-0.20169 0.950899,-0.391029 1.33332,-0.666662c0.30233,-0.217907 0.697663,-0.448751 0.999993,-0.66666c0.382419,-0.275633 0.619014,-0.701939 0.999992,-1.166657c0.149429,-0.182275 0.66666,-0.66666 0.833325,-1.166656c0.166664,-0.499994 0.391025,-0.784235 0.66666,-1.166656c0.217907,-0.302329 0.403141,-0.569806 0.66666,-0.833326c0.263519,-0.263521 0.489021,-0.524044 0.833325,-0.66666c0.486923,-0.201691 0.782234,-0.243132 0.999992,-0.33333c0.307957,-0.127562 0.499996,-0.166665 0.833328,-0.166665c0.333328,0 0.66666,0 0.833325,0c0.166664,0 0.333332,0 0.499996,0c0.166664,0 0.499996,0 0.66666,0c0.166664,0 0.333328,0.166665 0.499996,0.166665l0.166664,0" id="svg_10" fill-opacity="null" stroke-opacity="null" stroke-width="2" stroke="#000" fill="none"/>
  <path d="m5.833494,33.416583c0.166665,0 0.33333,0 0.833326,0c0.166665,0 0.499996,-0.166666 0.833325,-0.33333c0.333332,-0.166666 0.470622,-0.414374 0.833326,-0.499996c0.162207,-0.038292 0.448755,-0.197667 0.666662,-0.499997c0.275632,-0.382419 0.903134,-0.403139 1.166655,-0.66666c0.263521,-0.263521 0.499996,-0.499996 0.666661,-0.66666c0.166666,-0.166666 0.499995,-0.33333 0.666661,-0.499996c0.166665,-0.166664 0.502148,-0.306633 0.666661,-0.33333c0.520236,-0.084424 0.671119,-0.295039 0.833325,-0.333331c0.362707,-0.085622 0.666662,-0.33333 0.999992,-0.33333c0.166665,0 0.499995,0 0.66666,0c0.166666,0 0.333331,0 0.499996,0c0.166665,0 0.33333,0 0.499995,0c0.166666,0 0.333332,0 0.499996,0c0.33333,0 0.47545,0.195515 0.66666,0.33333c0.30233,0.217908 0.666662,0.333331 0.999992,0.499997c0.333331,0.166664 0.720604,0.253356 0.999991,0.499994c0.450497,0.39769 0.499996,0.666662 0.833326,0.833326c0.33333,0.166666 0.66666,0.33333 0.999991,0.499996c0.33333,0.166664 0.448904,0.409796 0.66666,0.499995c0.307959,0.127561 0.530996,0.115425 0.833326,0.33333c0.191212,0.137817 0.364332,0.282089 0.666663,0.499996c0.191209,0.137815 0.499994,0.499996 0.833324,0.66666c0.33333,0.166666 0.718328,0.222914 1.166656,0.499996c0.200501,0.123915 0.504302,0.113274 0.833327,0.166666c0.520237,0.084424 0.833326,0.166665 1.499986,0.166665c0.333331,0 1.166657,0 1.499987,0c0.499996,0 1.155682,-0.024048 1.499987,-0.166665c0.486923,-0.20169 0.950899,-0.391029 1.33332,-0.666662c0.30233,-0.217907 0.697663,-0.448751 0.999993,-0.66666c0.382419,-0.275633 0.619014,-0.701939 0.999992,-1.166657c0.149429,-0.182275 0.66666,-0.66666 0.833325,-1.166656c0.166664,-0.499994 0.391025,-0.784235 0.66666,-1.166656c0.217907,-0.302329 0.403141,-0.569806 0.66666,-0.833326c0.263519,-0.263521 0.489021,-0.524044 0.833325,-0.66666c0.486923,-0.201691 0.782234,-0.243132 0.999992,-0.33333c0.307957,-0.127562 0.499996,-0.166665 0.833328,-0.166665c0.333328,0 0.66666,0 0.833325,0c0.166664,0 0.333332,0 0.499996,0c0.166664,0 0.499996,0 0.66666,0c0.166664,0 0.333328,0.166665 0.499996,0.166665l0.166664,0" id="svg_11" fill-opacity="null" stroke-opacity="null" stroke-width="2" stroke="#000" fill="none"/>
 </g>
</svg>