<svg width="32" height="32" xmlns="http://www.w3.org/2000/svg">
 <desc/>

 <g>
  <title>background</title>
  <rect fill="none" id="canvas_background" height="34" width="34" y="-1" x="-1"/>
 </g>
 <g>
  <title>Layer 1</title>
  <g stroke="null" id="svg_12">
   <path stroke="#000" d="m5.000168,12.74481c0.102685,0 0.20537,0 0.513424,0c0.102685,0 0.308055,-0.097883 0.513424,-0.195765c0.20537,-0.097883 0.289956,-0.243362 0.513424,-0.293649c0.099938,-0.022489 0.276484,-0.11609 0.410739,-0.293649c0.169821,-0.224596 0.556434,-0.236764 0.718793,-0.391531c0.162359,-0.154766 0.308055,-0.293649 0.410739,-0.391531c0.102685,-0.097883 0.308053,-0.195765 0.410739,-0.293649c0.102685,-0.097882 0.309381,-0.180086 0.410739,-0.195765c0.320525,-0.049582 0.413486,-0.173276 0.513423,-0.195765c0.223468,-0.050286 0.410739,-0.195765 0.616108,-0.195765c0.102685,0 0.308054,0 0.410739,0c0.102685,0 0.20537,0 0.308055,0c0.102685,0 0.205369,0 0.308054,0c0.102685,0 0.20537,0 0.308054,0c0.205369,0 0.292932,0.114826 0.410739,0.195765c0.18627,0.127978 0.41074,0.195766 0.616109,0.293649c0.205369,0.097882 0.443974,0.148797 0.616108,0.293647c0.277557,0.233564 0.308055,0.391532 0.513424,0.489414c0.205369,0.097883 0.410739,0.195765 0.616108,0.293649c0.205369,0.097882 0.276576,0.240674 0.410739,0.293647c0.189738,0.074917 0.327154,0.067789 0.513424,0.195765c0.117808,0.08094 0.22447,0.165671 0.41074,0.293649c0.117807,0.080939 0.308053,0.293649 0.513423,0.391531c0.205369,0.097883 0.442572,0.130918 0.718793,0.293649c0.123531,0.072775 0.310707,0.066526 0.513424,0.097883c0.320525,0.049582 0.513424,0.097882 0.924162,0.097882c0.205369,0 0.718793,0 0.924162,0c0.308055,0 0.712031,-0.014123 0.924162,-0.097882c0.3,-0.118453 0.585862,-0.229652 0.821477,-0.391532c0.18627,-0.127977 0.429839,-0.263552 0.616109,-0.391531c0.235614,-0.16188 0.381384,-0.41225 0.616109,-0.685179c0.092065,-0.107051 0.410739,-0.391531 0.513423,-0.685179c0.102684,-0.293647 0.240916,-0.460582 0.410739,-0.685179c0.134255,-0.177558 0.248381,-0.334648 0.410739,-0.489414c0.162358,-0.154766 0.301293,-0.307772 0.513423,-0.391531c0.3,-0.118453 0.481945,-0.142792 0.616109,-0.195765c0.189736,-0.074917 0.308055,-0.097883 0.513425,-0.097883c0.205368,0 0.410739,0 0.513423,0c0.102684,0 0.20537,0 0.308055,0c0.102684,0 0.308055,0 0.410739,0c0.102684,0 0.205368,0.097883 0.308055,0.097883l0.102684,0" id="svg_9" fill-opacity="null" stroke-opacity="null" fill="none"/>
   <path stroke="#000" d="m5.000168,16.562236c0.102685,0 0.205369,0 0.513424,0c0.102685,0 0.308054,-0.097883 0.513423,-0.195765c0.20537,-0.097883 0.289957,-0.243363 0.513424,-0.293648c0.099938,-0.022489 0.276484,-0.11609 0.41074,-0.293649c0.169821,-0.224595 0.556433,-0.236764 0.718792,-0.39153c0.162359,-0.154766 0.308054,-0.293648 0.410739,-0.39153c0.102685,-0.097883 0.308054,-0.195765 0.410739,-0.293648c0.102685,-0.097882 0.30938,-0.180086 0.410739,-0.195765c0.320525,-0.049582 0.413486,-0.173277 0.513423,-0.195766c0.223469,-0.050286 0.41074,-0.195765 0.616109,-0.195765c0.102685,0 0.308054,0 0.410738,0c0.102685,0 0.20537,0 0.308054,0c0.102685,0 0.205369,0 0.308054,0c0.102685,0 0.20537,0 0.308054,0c0.205369,0 0.292931,0.114826 0.410738,0.195765c0.18627,0.127978 0.41074,0.195766 0.616109,0.293649c0.20537,0.097882 0.443974,0.148796 0.616108,0.293647c0.277557,0.233564 0.308054,0.391532 0.513424,0.489414c0.205369,0.097883 0.410738,0.195765 0.616108,0.293648c0.205369,0.097882 0.276576,0.240674 0.410738,0.293648c0.189738,0.074917 0.327154,0.067789 0.513424,0.195765c0.117808,0.08094 0.22447,0.165671 0.41074,0.293648c0.117807,0.080939 0.308053,0.293648 0.513422,0.39153c0.205369,0.097883 0.442572,0.130918 0.718793,0.293648c0.123531,0.072775 0.310707,0.066526 0.513424,0.097883c0.320525,0.049582 0.513424,0.097883 0.924162,0.097883c0.20537,0 0.718793,0 0.924163,0c0.308054,0 0.712032,-0.014123 0.924163,-0.097883c0.3,-0.118453 0.585862,-0.229652 0.821477,-0.391532c0.18627,-0.127977 0.42984,-0.263552 0.616109,-0.39153c0.235614,-0.16188 0.381383,-0.41225 0.616109,-0.68518c0.092065,-0.10705 0.410738,-0.39153 0.513423,-0.685179c0.102684,-0.293647 0.240916,-0.460582 0.410738,-0.685179c0.134256,-0.177558 0.248381,-0.334648 0.410738,-0.489414c0.162358,-0.154766 0.301293,-0.307772 0.513423,-0.39153c0.3,-0.118453 0.481945,-0.142792 0.616109,-0.195765c0.189737,-0.074917 0.308054,-0.097883 0.513425,-0.097883c0.205368,0 0.410738,0 0.513423,0c0.102684,0 0.20537,0 0.308054,0c0.102684,0 0.308054,0 0.410738,0c0.102684,0 0.205368,0.097883 0.308054,0.097883l0.102684,0" id="svg_10" fill-opacity="null" stroke-opacity="null" fill="none"/>
   <path stroke="#000" d="m5.000168,20.966959c0.102685,0 0.205369,0 0.513424,0c0.102685,0 0.308054,-0.097883 0.513423,-0.195765c0.20537,-0.097883 0.289957,-0.243363 0.513424,-0.293648c0.099938,-0.022489 0.276484,-0.11609 0.41074,-0.293649c0.169821,-0.224595 0.556433,-0.236764 0.718792,-0.39153c0.162359,-0.154766 0.308054,-0.293648 0.410739,-0.39153c0.102685,-0.097883 0.308054,-0.195765 0.410739,-0.293648c0.102685,-0.097882 0.30938,-0.180086 0.410739,-0.195765c0.320525,-0.049582 0.413486,-0.173277 0.513423,-0.195766c0.223469,-0.050286 0.41074,-0.195765 0.616109,-0.195765c0.102685,0 0.308054,0 0.410738,0c0.102685,0 0.20537,0 0.308054,0c0.102685,0 0.205369,0 0.308054,0c0.102685,0 0.20537,0 0.308054,0c0.205369,0 0.292931,0.114826 0.410738,0.195765c0.18627,0.127978 0.41074,0.195766 0.616109,0.293649c0.20537,0.097882 0.443974,0.148796 0.616108,0.293647c0.277557,0.233564 0.308054,0.391532 0.513424,0.489414c0.205369,0.097883 0.410738,0.195765 0.616108,0.293648c0.205369,0.097882 0.276576,0.240674 0.410738,0.293648c0.189738,0.074917 0.327154,0.067789 0.513424,0.195765c0.117808,0.08094 0.22447,0.165671 0.41074,0.293648c0.117807,0.080939 0.308053,0.293648 0.513422,0.39153c0.205369,0.097883 0.442572,0.130918 0.718793,0.293648c0.123531,0.072775 0.310707,0.066526 0.513424,0.097883c0.320525,0.049582 0.513424,0.097883 0.924162,0.097883c0.20537,0 0.718793,0 0.924163,0c0.308054,0 0.712032,-0.014123 0.924163,-0.097883c0.3,-0.118453 0.585862,-0.229652 0.821477,-0.391532c0.18627,-0.127977 0.42984,-0.263552 0.616109,-0.39153c0.235614,-0.16188 0.381383,-0.41225 0.616109,-0.68518c0.092065,-0.10705 0.410738,-0.39153 0.513423,-0.685179c0.102684,-0.293647 0.240916,-0.460582 0.410738,-0.685179c0.134256,-0.177558 0.248381,-0.334648 0.410738,-0.489414c0.162358,-0.154766 0.301293,-0.307772 0.513423,-0.39153c0.3,-0.118453 0.481945,-0.142792 0.616109,-0.195765c0.189737,-0.074917 0.308054,-0.097883 0.513425,-0.097883c0.205368,0 0.410738,0 0.513423,0c0.102684,0 0.20537,0 0.308054,0c0.102684,0 0.308054,0 0.410738,0c0.102684,0 0.205368,0.097883 0.308054,0.097883l0.102684,0" id="svg_11" fill-opacity="null" stroke-opacity="null" fill="none"/>
  </g>
 </g>
</svg>