<svg width="32" height="32" xmlns="http://www.w3.org/2000/svg">
 <!-- Created with Method Draw - http://github.com/duopixel/Method-Draw/ -->

 <g>
  <title>background</title>
  <rect x="-1" y="-1" width="34" height="34" id="canvas_background" fill="none"/>
  <g id="canvasGrid" display="none">
   <rect id="svg_1" width="100%" height="100%" x="0" y="0" stroke-width="0" fill="url(#gridpattern)"/>
  </g>
 </g>
 <g>
  <title>Layer 1</title>
  <path stroke="#000" fill="#fff" stroke-opacity="null" fill-opacity="null" d="m16.000007,2.500016c-7.179748,0 -12.999995,5.819653 -12.999995,12.99954c0,2.4531 0.688081,4.745644 1.871985,6.702836l-1.871985,5.473006l5.212046,-1.783401c2.171919,1.629417 4.862954,2.608014 7.787949,2.608014c7.179765,0 13,-5.820604 13,-13.000455s-5.820235,-12.99954 -13,-12.99954zm0.911949,20.350365l-1.828501,0l0,-2.338797l1.828501,0l0,2.338797zm0,-4.836321l0,0.773621l-1.828501,0l0,-0.952153c0,-2.873456 2.452474,-3.328742 2.452474,-5.369074c0,-0.931389 -0.623974,-1.645499 -1.442046,-1.645499c-0.846949,0 -1.590641,0.832205 -1.590641,0.832205l-1.040179,-1.724844c0,0 1.025299,-1.427278 2.794119,-1.427278c1.680784,0 3.240782,1.387605 3.240782,3.725484c0.000892,3.272087 -2.586009,3.648027 -2.586009,5.787537l0.000001,0l0.000001,0.000002z" id="svg_17"/>
 </g>
</svg>